<svg width="536" height="638" viewBox="0 0 536 638" version="1.1" xmlns="http://www.w3.org/2000/svg" xmlns:xlink="http://www.w3.org/1999/xlink">
<title>Group 9</title>
<desc>Created using Figma</desc>
<g id="Canvas" transform="translate(-471 -2006)">
<g id="Group 9">
<g id="Group 8">
<g id="Path 2">
<use xlink:href="#path0_stroke" transform="translate(732 2185)" fill="#D9DCDF"/>
</g>
<g id="Path 2">
<use xlink:href="#path1_stroke" transform="translate(577 2233)" fill="#D9DCDF"/>
</g>
<g id="Path 2">
<use xlink:href="#path2_stroke" transform="translate(577 2233)" fill="#D9DCDF"/>
</g>
<g id="Oval 2">
<use xlink:href="#path3_fill" transform="translate(668 2243)" fill="#96BD22"/>
</g>
<g id="Gaming Vouchers">
<use xlink:href="#path4_fill" transform="translate(464 2278)"/>
</g>
<g id="Cryptocurrencies">
<use xlink:href="#path5_fill" transform="translate(866 2278)"/>
</g>
<g id="Phone / Calling Card">
<use xlink:href="#path6_fill" transform="translate(866 2514)"/>
</g>
<g id="Recycling">
<use xlink:href="#path7_fill" transform="translate(660 2627)"/>
</g>
<g id="Gift Cards">
<use xlink:href="#path8_fill" transform="translate(660 2161)"/>
</g>
<g id="International TOP-UP">
<use xlink:href="#path9_fill" transform="translate(464 2514)"/>
</g>
<g id="Oval 2 Copy 4">
<use xlink:href="#path3_fill" transform="translate(874 2358)" fill="#FFFFFF"/>
<use xlink:href="#path10_stroke" transform="translate(874 2358)" fill="#96BD22"/>
</g>
<g id="Oval 2 Copy 5">
<use xlink:href="#path3_fill" transform="translate(472 2358)" fill="#FFFFFF"/>
<use xlink:href="#path10_stroke" transform="translate(472 2358)" fill="#96BD22"/>
</g>
<g id="Oval 2 Copy 6">
<use xlink:href="#path3_fill" transform="translate(668 2475)" fill="#FFFFFF"/>
<use xlink:href="#path10_stroke" transform="translate(668 2475)" fill="#96BD22"/>
</g>
<g id="Oval 2 Copy 9">
<use xlink:href="#path3_fill" transform="translate(668 2007)" fill="#FFFFFF"/>
<use xlink:href="#path10_stroke" transform="translate(668 2007)" fill="#96BD22"/>
</g>
<g id="Oval 2 Copy 7">
<use xlink:href="#path3_fill" transform="translate(874 2127)" fill="#FFFFFF"/>
<use xlink:href="#path10_stroke" transform="translate(874 2127)" fill="#96BD22"/>
</g>
<g id="Oval 2 Copy 8">
<use xlink:href="#path3_fill" transform="translate(472 2127)" fill="#FFFFFF"/>
<use xlink:href="#path10_stroke" transform="translate(472 2127)" fill="#96BD22"/>
</g>
<g id="Group 6">
<g id="Combined Shape">
<use xlink:href="#path11_fill" transform="translate(712 2287)" fill="#FFFFFF"/>
</g>
</g>
<g id="noun_1365246_cc">
<g id="Shape">
<use xlink:href="#path12_fill" transform="translate(917 2167.21)" fill="#96BD22"/>
</g>
</g>
<g id="noun_175471_cc">
<g id="Group">
<g id="Shape">
<use xlink:href="#path13_fill" transform="translate(935.037 2411.96)" fill="#96BD22"/>
</g>
<g id="Shape">
<use xlink:href="#path14_fill" transform="translate(922.438 2404.44)" fill="#96BD22"/>
</g>
</g>
</g>
<g id="Group 3">
<g id="Shape">
<use xlink:href="#path15_fill" transform="translate(713.01 2521.01)" fill="#96BD22"/>
</g>
<g id="Shape">
<use xlink:href="#path16_fill" transform="translate(713.01 2541)" fill="#96BD22"/>
</g>
</g>
<g id="noun_1017145_cc">
<g id="Shape">
<use xlink:href="#path17_fill" transform="translate(513 2403.17)" fill="#96BD22"/>
</g>
</g>
<g id="noun_1139495_cc">
<g id="Group">
<g id="Shape">
<use xlink:href="#path18_fill" transform="translate(527.004 2179.03)" fill="#96BD22"/>
</g>
<g id="Shape">
<use xlink:href="#path19_fill" transform="translate(534.004 2184.91)" fill="#96BD22"/>
</g>
<g id="Shape">
<use xlink:href="#path20_fill" transform="translate(518 2171.02)" fill="#96BD22"/>
</g>
</g>
</g>
</g>
<g id="noun_194918_cc">
<g id="Group">
<g id="Shape">
<use xlink:href="#path21_fill" transform="translate(709.488 2054.6)" fill="#96BD22"/>
</g>
<g id="Shape">
<use xlink:href="#path22_fill" transform="translate(709.488 2068.27)" fill="#96BD22"/>
</g>
<g id="Shape">
<use xlink:href="#path23_fill" transform="translate(740.951 2073.38)" fill="#96BD22"/>
</g>
</g>
</g>
</g>
</g>
<defs>
<path id="path0_stroke" d="M 0.900164 0.674213L 0.900164 2.66403L 2.90016 2.66403L 2.90016 0.674213L 0.900164 0.674213ZM 0.900164 6.64368L 0.900164 10.6233L 2.90016 10.6233L 2.90016 6.64368L 0.900164 6.64368ZM 0.900164 14.603L 0.900164 18.5826L 2.90016 18.5826L 2.90016 14.603L 0.900164 14.603ZM 0.900164 22.5622L 0.900164 26.5419L 2.90016 26.5419L 2.90016 22.5622L 0.900164 22.5622ZM 0.900164 30.5215L 0.900164 34.5012L 2.90016 34.5012L 2.90016 30.5215L 0.900164 30.5215ZM 0.900164 38.4808L 0.900164 42.4605L 2.90016 42.4605L 2.90016 38.4808L 0.900164 38.4808ZM 0.900164 46.4401L 0.900164 50.4198L 2.90016 50.4198L 2.90016 46.4401L 0.900164 46.4401ZM 0.900164 54.3994L 0.900164 58.379L 2.90016 58.379L 2.90016 54.3994L 0.900164 54.3994ZM 0.900164 62.3587L 0.900164 66.3383L 2.90016 66.3383L 2.90016 62.3587L 0.900164 62.3587ZM 0.900164 70.318L 0.900164 74.2976L 2.90016 74.2976L 2.90016 70.318L 0.900164 70.318ZM 0.900164 78.2773L 0.900164 82.2569L 2.90016 82.2569L 2.90016 78.2773L 0.900164 78.2773ZM 0.900164 86.2366L 0.900164 90.2162L 2.90016 90.2162L 2.90016 86.2366L 0.900164 86.2366ZM 0.900164 94.1959L 0.900164 98.1755L 2.90016 98.1755L 2.90016 94.1959L 0.900164 94.1959ZM 0.900164 102.155L 0.900164 106.135L 2.90016 106.135L 2.90016 102.155L 0.900164 102.155ZM 0.900164 110.114L 0.900164 114.094L 2.90016 114.094L 2.90016 110.114L 0.900164 110.114ZM 0.900164 118.074L 0.900164 122.053L 2.90016 122.053L 2.90016 118.074L 0.900164 118.074ZM 0.900164 126.033L 0.900164 130.013L 2.90016 130.013L 2.90016 126.033L 0.900164 126.033ZM 0.900164 133.992L 0.900164 137.972L 2.90016 137.972L 2.90016 133.992L 0.900164 133.992ZM 0.900164 141.952L 0.900164 145.931L 2.90016 145.931L 2.90016 141.952L 0.900164 141.952ZM 0.900164 149.911L 0.900164 153.891L 2.90016 153.891L 2.90016 149.911L 0.900164 149.911ZM 0.900164 157.87L 0.900164 161.85L 2.90016 161.85L 2.90016 157.87L 0.900164 157.87ZM 0.900164 165.829L 0.900164 169.809L 2.90016 169.809L 2.90016 165.829L 0.900164 165.829ZM 0.900164 173.789L 0.900164 177.768L 2.90016 177.768L 2.90016 173.789L 0.900164 173.789ZM 0.900164 181.748L 0.900164 185.728L 2.90016 185.728L 2.90016 181.748L 0.900164 181.748ZM 0.900164 189.707L 0.900164 193.687L 2.90016 193.687L 2.90016 189.707L 0.900164 189.707ZM 0.900164 197.667L 0.900164 201.646L 2.90016 201.646L 2.90016 197.667L 0.900164 197.667ZM 0.900164 205.626L 0.900164 209.606L 2.90016 209.606L 2.90016 205.626L 0.900164 205.626ZM 0.900164 213.585L 0.900164 217.565L 2.90016 217.565L 2.90016 213.585L 0.900164 213.585ZM 0.900164 221.544L 0.900164 225.524L 2.90016 225.524L 2.90016 221.544L 0.900164 221.544ZM 0.900164 229.504L 0.900164 233.483L 2.90016 233.483L 2.90016 229.504L 0.900164 229.504ZM 0.900164 237.463L 0.900164 241.443L 2.90016 241.443L 2.90016 237.463L 0.900164 237.463ZM 0.900164 245.422L 0.900164 249.402L 2.90016 249.402L 2.90016 245.422L 0.900164 245.422ZM 0.900164 253.382L 0.900164 257.361L 2.90016 257.361L 2.90016 253.382L 0.900164 253.382ZM 0.900164 261.341L 0.900164 265.321L 2.90016 265.321L 2.90016 261.341L 0.900164 261.341ZM 0.900164 269.3L 0.900164 273.28L 2.90016 273.28L 2.90016 269.3L 0.900164 269.3ZM 0.900164 277.26L 0.900164 281.239L 2.90016 281.239L 2.90016 277.26L 0.900164 277.26ZM 0.900164 285.219L 0.900164 289.198L 2.90016 289.198L 2.90016 285.219L 0.900164 285.219ZM 0.900164 293.178L 0.900164 297.158L 2.90016 297.158L 2.90016 293.178L 0.900164 293.178ZM 0.900164 301.137L 0.900164 305.117L 2.90016 305.117L 2.90016 301.137L 0.900164 301.137ZM 0.900164 309.097L 0.900164 313.076L 2.90016 313.076L 2.90016 309.097L 0.900164 309.097ZM 0.900164 317.056L 0.900164 319.046L 2.90016 319.046L 2.90016 317.056L 0.900164 317.056Z"/>
<path id="path1_stroke" d="M -0.499404 0.866369L 1.22587 1.86087L 2.22468 0.128136L 0.499404 -0.866369L -0.499404 0.866369ZM 4.67642 3.84989L 8.12697 5.8389L 9.12578 4.10616L 5.67523 2.11715L 4.67642 3.84989ZM 11.5775 7.82791L 15.0281 9.81692L 16.0269 8.08418L 12.5763 6.09517L 11.5775 7.82791ZM 18.4786 11.8059L 21.9292 13.7949L 22.928 12.0622L 19.4774 10.0732L 18.4786 11.8059ZM 25.3797 15.784L 28.8303 17.773L 29.8291 16.0402L 26.3785 14.0512L 25.3797 15.784ZM 32.2808 19.762L 35.7314 21.751L 36.7302 20.0182L 33.2796 18.0292L 32.2808 19.762ZM 39.1819 23.74L 42.6325 25.729L 43.6313 23.9963L 40.1807 22.0073L 39.1819 23.74ZM 46.083 27.718L 49.5336 29.707L 50.5324 27.9743L 47.0818 25.9853L 46.083 27.718ZM 52.9841 31.696L 56.4347 33.685L 57.4335 31.9523L 53.9829 29.9633L 52.9841 31.696ZM 59.8852 35.6741L 63.3358 37.6631L 64.3346 35.9303L 60.884 33.9413L 59.8852 35.6741ZM 66.7863 39.6521L 70.2369 41.6411L 71.2357 39.9084L 67.7851 37.9193L 66.7863 39.6521ZM 73.6874 43.6301L 77.138 45.6191L 78.1368 43.8864L 74.6862 41.8974L 73.6874 43.6301ZM 80.5885 47.6081L 84.0391 49.5971L 85.0379 47.8644L 81.5873 45.8754L 80.5885 47.6081ZM 87.4896 51.5862L 90.9402 53.5752L 91.939 51.8424L 88.4884 49.8534L 87.4896 51.5862ZM 94.3907 55.5642L 97.8413 57.5532L 98.8401 55.8205L 95.3895 53.8314L 94.3907 55.5642ZM 101.292 59.5422L 104.742 61.5312L 105.741 59.7985L 102.291 57.8095L 101.292 59.5422ZM 108.193 63.5202L 111.643 65.5092L 112.642 63.7765L 109.192 61.7875L 108.193 63.5202ZM 115.094 67.4983L 118.545 69.4873L 119.543 67.7545L 116.093 65.7655L 115.094 67.4983ZM 121.995 71.4763L 125.446 73.4653L 126.444 71.7326L 122.994 69.7435L 121.995 71.4763ZM 128.896 75.4543L 132.347 77.4433L 133.346 75.7106L 129.895 73.7216L 128.896 75.4543ZM 135.797 79.4323L 139.248 81.4213L 140.247 79.6886L 136.796 77.6996L 135.797 79.4323ZM 142.698 83.4104L 146.149 85.3994L 147.148 83.6666L 143.697 81.6776L 142.698 83.4104ZM 149.6 87.3884L 153.05 89.3774L 154.049 87.6447L 150.598 85.6556L 149.6 87.3884ZM 156.501 91.3664L 159.951 93.3554L 160.95 91.6227L 157.499 89.6337L 156.501 91.3664ZM 163.402 95.3444L 166.852 97.3334L 167.851 95.6007L 164.401 93.6117L 163.402 95.3444ZM 170.303 99.3225L 173.753 101.311L 174.752 99.5787L 171.302 97.5897L 170.303 99.3225ZM 177.204 103.3L 180.655 105.289L 181.653 103.557L 178.203 101.568L 177.204 103.3ZM 184.105 107.279L 187.556 109.268L 188.554 107.535L 185.104 105.546L 184.105 107.279ZM 191.006 111.257L 194.457 113.246L 195.456 111.513L 192.005 109.524L 191.006 111.257ZM 197.907 115.235L 201.358 117.224L 202.357 115.491L 198.906 113.502L 197.907 115.235ZM 204.808 119.213L 208.259 121.202L 209.258 119.469L 205.807 117.48L 204.808 119.213ZM 211.709 123.191L 215.16 125.18L 216.159 123.447L 212.708 121.458L 211.709 123.191ZM 218.611 127.169L 222.061 129.158L 223.06 127.425L 219.609 125.436L 218.611 127.169ZM 225.512 131.147L 228.962 133.136L 229.961 131.403L 226.511 129.414L 225.512 131.147ZM 232.413 135.125L 235.863 137.114L 236.862 135.381L 233.412 133.392L 232.413 135.125ZM 239.314 139.103L 242.764 141.092L 243.763 139.359L 240.313 137.37L 239.314 139.103ZM 246.215 143.081L 249.665 145.07L 250.664 143.337L 247.214 141.348L 246.215 143.081ZM 253.116 147.059L 256.567 149.048L 257.565 147.315L 254.115 145.326L 253.116 147.059ZM 260.017 151.037L 263.468 153.026L 264.466 151.293L 261.016 149.304L 260.017 151.037ZM 266.918 155.015L 270.369 157.004L 271.367 155.271L 267.917 153.282L 266.918 155.015ZM 273.819 158.993L 277.27 160.982L 278.269 159.249L 274.818 157.26L 273.819 158.993ZM 280.72 162.971L 284.171 164.96L 285.17 163.227L 281.719 161.238L 280.72 162.971ZM 287.621 166.949L 291.072 168.938L 292.071 167.205L 288.62 165.216L 287.621 166.949ZM 294.522 170.927L 297.973 172.916L 298.972 171.183L 295.521 169.194L 294.522 170.927ZM 301.424 174.905L 304.874 176.894L 305.873 175.161L 302.422 173.172L 301.424 174.905ZM 308.325 178.883L 311.775 180.872L 312.774 179.139L 309.323 177.15L 308.325 178.883Z"/>
<path id="path2_stroke" d="M 0.499404 181.866L 2.22468 180.872L 1.22587 179.139L -0.499404 180.134L 0.499404 181.866ZM 5.67523 178.883L 9.12578 176.894L 8.12697 175.161L 4.67642 177.15L 5.67523 178.883ZM 12.5763 174.905L 16.0269 172.916L 15.0281 171.183L 11.5775 173.172L 12.5763 174.905ZM 19.4774 170.927L 22.928 168.938L 21.9292 167.205L 18.4786 169.194L 19.4774 170.927ZM 26.3785 166.949L 29.8291 164.96L 28.8303 163.227L 25.3797 165.216L 26.3785 166.949ZM 33.2796 162.971L 36.7302 160.982L 35.7314 159.249L 32.2808 161.238L 33.2796 162.971ZM 40.1807 158.993L 43.6313 157.004L 42.6325 155.271L 39.1819 157.26L 40.1807 158.993ZM 47.0818 155.015L 50.5324 153.026L 49.5336 151.293L 46.083 153.282L 47.0818 155.015ZM 53.9829 151.037L 57.4335 149.048L 56.4347 147.315L 52.9841 149.304L 53.9829 151.037ZM 60.884 147.059L 64.3346 145.07L 63.3358 143.337L 59.8852 145.326L 60.884 147.059ZM 67.7851 143.081L 71.2357 141.092L 70.2369 139.359L 66.7863 141.348L 67.7851 143.081ZM 74.6862 139.103L 78.1368 137.114L 77.138 135.381L 73.6874 137.37L 74.6862 139.103ZM 81.5873 135.125L 85.0379 133.136L 84.0391 131.403L 80.5885 133.392L 81.5873 135.125ZM 88.4884 131.147L 91.939 129.158L 90.9402 127.425L 87.4896 129.414L 88.4884 131.147ZM 95.3895 127.169L 98.8401 125.18L 97.8413 123.447L 94.3907 125.436L 95.3895 127.169ZM 102.291 123.191L 105.741 121.202L 104.742 119.469L 101.292 121.458L 102.291 123.191ZM 109.192 119.213L 112.642 117.223L 111.643 115.491L 108.193 117.48L 109.192 119.213ZM 116.093 115.234L 119.543 113.245L 118.545 111.513L 115.094 113.502L 116.093 115.234ZM 122.994 111.256L 126.444 109.267L 125.446 107.535L 121.995 109.524L 122.994 111.256ZM 129.895 107.278L 133.346 105.289L 132.347 103.557L 128.896 105.546L 129.895 107.278ZM 136.796 103.3L 140.247 101.311L 139.248 99.5787L 135.797 101.568L 136.796 103.3ZM 143.697 99.3224L 147.148 97.3334L 146.149 95.6006L 142.698 97.5896L 143.697 99.3224ZM 150.598 95.3444L 154.049 93.3553L 153.05 91.6226L 149.6 93.6116L 150.598 95.3444ZM 157.499 91.3663L 160.95 89.3773L 159.951 87.6446L 156.501 89.6336L 157.499 91.3663ZM 164.401 87.3883L 167.851 85.3993L 166.852 83.6666L 163.402 85.6556L 164.401 87.3883ZM 171.302 83.4103L 174.752 81.4213L 173.753 79.6885L 170.303 81.6775L 171.302 83.4103ZM 178.203 79.4323L 181.653 77.4432L 180.655 75.7105L 177.204 77.6995L 178.203 79.4323ZM 185.104 75.4542L 188.554 73.4652L 187.556 71.7325L 184.105 73.7215L 185.104 75.4542ZM 192.005 71.4762L 195.456 69.4872L 194.457 67.7545L 191.006 69.7435L 192.005 71.4762ZM 198.906 67.4982L 202.357 65.5092L 201.358 63.7764L 197.907 65.7654L 198.906 67.4982ZM 205.807 63.5202L 209.258 61.5311L 208.259 59.7984L 204.808 61.7874L 205.807 63.5202ZM 212.708 59.5421L 216.159 57.5531L 215.16 55.8204L 211.709 57.8094L 212.708 59.5421ZM 219.609 55.5641L 223.06 53.5751L 222.061 51.8424L 218.611 53.8314L 219.609 55.5641ZM 226.511 51.5861L 229.961 49.5971L 228.962 47.8643L 225.512 49.8533L 226.511 51.5861ZM 233.412 47.6081L 236.862 45.6191L 235.863 43.8863L 232.413 45.8753L 233.412 47.6081ZM 240.313 43.6301L 243.763 41.6411L 242.764 39.9083L 239.314 41.8973L 240.313 43.6301ZM 247.214 39.6521L 250.664 37.6631L 249.665 35.9303L 246.215 37.9193L 247.214 39.6521ZM 254.115 35.6741L 257.565 33.685L 256.567 31.9523L 253.116 33.9413L 254.115 35.6741ZM 261.016 31.696L 264.466 29.707L 263.468 27.9743L 260.017 29.9633L 261.016 31.696ZM 267.917 27.718L 271.367 25.729L 270.369 23.9963L 266.918 25.9853L 267.917 27.718ZM 274.818 23.74L 278.269 21.751L 277.27 20.0183L 273.819 22.0073L 274.818 23.74ZM 281.719 19.762L 285.17 17.773L 284.171 16.0403L 280.72 18.0293L 281.719 19.762ZM 288.62 15.784L 292.071 13.795L 291.072 12.0623L 287.621 14.0513L 288.62 15.784ZM 295.521 11.806L 298.972 9.81699L 297.973 8.08425L 294.522 10.0733L 295.521 11.806ZM 302.422 7.82799L 305.873 5.83898L 304.874 4.10624L 301.424 6.09525L 302.422 7.82799ZM 309.323 3.84998L 312.774 1.86097L 311.775 0.128228L 308.325 2.11724L 309.323 3.84998Z"/>
<path id="path3_fill" fill-rule="evenodd" d="M 66 132C 102.451 132 132 102.451 132 66C 132 29.5492 102.451 0 66 0C 29.5492 0 0 29.5492 0 66C 0 102.451 29.5492 132 66 132Z"/>
<path id="path4_fill" d="M 25.8856 7.76367L 29.283 7.76367L 29.283 12.624C 28.7544 12.7926 28.2166 12.9202 27.6697 13.0068C 27.1229 13.0934 26.4894 13.1367 25.7694 13.1367C 24.2563 13.1367 23.0783 12.6878 22.2352 11.79C 21.3921 10.8877 20.9705 9.62533 20.9705 8.00293C 20.9705 6.96387 21.1779 6.05469 21.5926 5.27539C 22.0119 4.49154 22.6134 3.89453 23.3973 3.48438C 24.1811 3.06966 25.0994 2.8623 26.1522 2.8623C 27.2186 2.8623 28.2121 3.05827 29.1326 3.4502L 28.6815 4.47559C 27.7791 4.09277 26.911 3.90137 26.077 3.90137C 24.8602 3.90137 23.91 4.26367 23.2264 4.98828C 22.5428 5.71289 22.201 6.71777 22.201 8.00293C 22.201 9.35189 22.5291 10.375 23.1854 11.0723C 23.8462 11.7695 24.8146 12.1182 26.0906 12.1182C 26.7833 12.1182 27.4601 12.0384 28.1209 11.8789L 28.1209 8.80273L 25.8856 8.80273L 25.8856 7.76367ZM 35.6167 13L 35.3911 11.9336L 35.3364 11.9336C 34.9627 12.403 34.589 12.722 34.2153 12.8906C 33.8462 13.0547 33.3836 13.1367 32.8276 13.1367C 32.0848 13.1367 31.5015 12.9453 31.0776 12.5625C 30.6584 12.1797 30.4487 11.6351 30.4487 10.9287C 30.4487 9.41569 31.6587 8.62272 34.0786 8.5498L 35.3501 8.50879L 35.3501 8.04395C 35.3501 7.45605 35.2225 7.02311 34.9673 6.74512C 34.7166 6.46257 34.3133 6.32129 33.7573 6.32129C 33.133 6.32129 32.4266 6.5127 31.6382 6.89551L 31.2896 6.02734C 31.6587 5.82682 32.062 5.6696 32.4995 5.55566C 32.9416 5.44173 33.3836 5.38477 33.8257 5.38477C 34.7189 5.38477 35.3797 5.58301 35.8081 5.97949C 36.2411 6.37598 36.4575 7.01172 36.4575 7.88672L 36.4575 13L 35.6167 13ZM 33.0532 12.2002C 33.7596 12.2002 34.3133 12.0065 34.7144 11.6191C 35.12 11.2318 35.3228 10.6895 35.3228 9.99219L 35.3228 9.31543L 34.188 9.36328C 33.2857 9.39518 32.634 9.53646 32.2329 9.78711C 31.8364 10.0332 31.6382 10.4183 31.6382 10.9424C 31.6382 11.3525 31.7612 11.6647 32.0073 11.8789C 32.258 12.0931 32.6066 12.2002 33.0532 12.2002ZM 47.843 13L 47.843 8.12598C 47.843 7.52897 47.7154 7.08236 47.4602 6.78613C 47.2049 6.48535 46.8085 6.33496 46.2707 6.33496C 45.5643 6.33496 45.0425 6.53776 44.7053 6.94336C 44.368 7.34896 44.1994 7.97331 44.1994 8.81641L 44.1994 13L 43.0646 13L 43.0646 8.12598C 43.0646 7.52897 42.937 7.08236 42.6818 6.78613C 42.4266 6.48535 42.0279 6.33496 41.4855 6.33496C 40.7746 6.33496 40.2528 6.54915 39.9201 6.97754C 39.592 7.40137 39.4279 8.09863 39.4279 9.06934L 39.4279 13L 38.2932 13L 38.2932 5.50781L 39.216 5.50781L 39.4006 6.5332L 39.4553 6.5332C 39.6695 6.16862 39.9702 5.88379 40.3576 5.67871C 40.7495 5.47363 41.187 5.37109 41.6701 5.37109C 42.8413 5.37109 43.607 5.79492 43.967 6.64258L 44.0217 6.64258C 44.245 6.25065 44.5686 5.94076 44.9924 5.71289C 45.4162 5.48503 45.8993 5.37109 46.4416 5.37109C 47.2893 5.37109 47.9227 5.58984 48.342 6.02734C 48.7658 6.46029 48.9777 7.15527 48.9777 8.1123L 48.9777 13L 47.843 13ZM 51.9481 13L 50.8134 13L 50.8134 5.50781L 51.9481 5.50781L 51.9481 13ZM 50.7177 3.47754C 50.7177 3.21777 50.7815 3.02865 50.9091 2.91016C 51.0367 2.78711 51.1962 2.72559 51.3876 2.72559C 51.5699 2.72559 51.7271 2.78711 51.8593 2.91016C 51.9914 3.0332 52.0575 3.22233 52.0575 3.47754C 52.0575 3.73275 51.9914 3.92415 51.8593 4.05176C 51.7271 4.1748 51.5699 4.23633 51.3876 4.23633C 51.1962 4.23633 51.0367 4.1748 50.9091 4.05176C 50.7815 3.92415 50.7177 3.73275 50.7177 3.47754ZM 58.9722 13L 58.9722 8.15332C 58.9722 7.54264 58.8333 7.08691 58.5553 6.78613C 58.2773 6.48535 57.842 6.33496 57.2496 6.33496C 56.4657 6.33496 55.8915 6.54688 55.5269 6.9707C 55.1624 7.39453 54.9801 8.09408 54.9801 9.06934L 54.9801 13L 53.8453 13L 53.8453 5.50781L 54.7681 5.50781L 54.9527 6.5332L 55.0074 6.5332C 55.2398 6.16406 55.5657 5.87923 55.9849 5.67871C 56.4042 5.47363 56.8713 5.37109 57.3863 5.37109C 58.2887 5.37109 58.9677 5.58984 59.4234 6.02734C 59.8791 6.46029 60.107 7.15527 60.107 8.1123L 60.107 13L 58.9722 13ZM 68.0676 5.50781L 68.0676 6.22559L 66.68 6.38965C 66.8076 6.54915 66.9215 6.75879 67.0218 7.01855C 67.122 7.27376 67.1721 7.56315 67.1721 7.88672C 67.1721 8.62044 66.9215 9.20605 66.4202 9.64355C 65.9189 10.0811 65.2307 10.2998 64.3557 10.2998C 64.1324 10.2998 63.9228 10.2816 63.7268 10.2451C 63.2438 10.5003 63.0022 10.8216 63.0022 11.209C 63.0022 11.4141 63.0865 11.5667 63.2551 11.667C 63.4238 11.7627 63.7132 11.8105 64.1233 11.8105L 65.4495 11.8105C 66.2607 11.8105 66.8828 11.9814 67.3157 12.3232C 67.7532 12.665 67.9719 13.1618 67.9719 13.8135C 67.9719 14.6429 67.6393 15.2741 66.9739 15.707C 66.3085 16.1445 65.3378 16.3633 64.0618 16.3633C 63.082 16.3633 62.3255 16.181 61.7923 15.8164C 61.2636 15.4518 60.9993 14.9368 60.9993 14.2715C 60.9993 13.8158 61.1451 13.4215 61.4368 13.0889C 61.7285 12.7562 62.1386 12.5306 62.6673 12.4121C 62.4759 12.3255 62.3141 12.1911 62.1819 12.0088C 62.0543 11.8265 61.9905 11.6146 61.9905 11.373C 61.9905 11.0996 62.0634 10.8604 62.2093 10.6553C 62.3551 10.4502 62.5852 10.252 62.8997 10.0605C 62.5123 9.90104 62.1956 9.62988 61.9495 9.24707C 61.7079 8.86426 61.5872 8.42676 61.5872 7.93457C 61.5872 7.11426 61.8333 6.48307 62.3255 6.04102C 62.8176 5.5944 63.5149 5.37109 64.4173 5.37109C 64.8092 5.37109 65.1624 5.41667 65.4768 5.50781L 68.0676 5.50781ZM 62.093 14.2578C 62.093 14.6634 62.2639 14.971 62.6057 15.1807C 62.9475 15.3903 63.4374 15.4951 64.0755 15.4951C 65.0279 15.4951 65.732 15.3516 66.1878 15.0645C 66.6481 14.7819 66.8782 14.3968 66.8782 13.9092C 66.8782 13.5036 66.7529 13.221 66.5022 13.0615C 66.2516 12.9066 65.7799 12.8291 65.0872 12.8291L 63.7268 12.8291C 63.2119 12.8291 62.8108 12.9521 62.5237 13.1982C 62.2366 13.4443 62.093 13.7975 62.093 14.2578ZM 62.7083 7.90723C 62.7083 8.43132 62.8564 8.8278 63.1526 9.09668C 63.4488 9.36556 63.8613 9.5 64.3899 9.5C 65.4973 9.5 66.051 8.96224 66.051 7.88672C 66.051 6.76107 65.4905 6.19824 64.3694 6.19824C 63.8362 6.19824 63.426 6.3418 63.1389 6.62891C 62.8518 6.91602 62.7083 7.34212 62.7083 7.90723ZM 78.1032 3.00586L 79.3542 3.00586L 75.7516 13L 74.6032 13L 71.0211 3.00586L 72.2516 3.00586L 74.5485 9.47266C 74.8128 10.2155 75.0225 10.9378 75.1774 11.6396C 75.3415 10.9014 75.5557 10.1654 75.82 9.43164L 78.1032 3.00586ZM 86.5218 9.24707C 86.5218 10.4684 86.2142 11.4232 85.599 12.1113C 84.9837 12.7949 84.1338 13.1367 83.0492 13.1367C 82.3792 13.1367 81.7845 12.9795 81.265 12.665C 80.7455 12.3506 80.3444 11.8994 80.0619 11.3115C 79.7793 10.7236 79.638 10.0355 79.638 9.24707C 79.638 8.02572 79.9434 7.07552 80.554 6.39648C 81.1647 5.71289 82.0124 5.37109 83.097 5.37109C 84.1452 5.37109 84.9769 5.71973 85.5921 6.41699C 86.2119 7.11426 86.5218 8.05762 86.5218 9.24707ZM 80.8138 9.24707C 80.8138 10.2041 81.0052 10.9333 81.388 11.4346C 81.7708 11.9359 82.3337 12.1865 83.0765 12.1865C 83.8193 12.1865 84.3822 11.9382 84.765 11.4414C 85.1524 10.9401 85.346 10.2087 85.346 9.24707C 85.346 8.2946 85.1524 7.57227 84.765 7.08008C 84.3822 6.58333 83.8148 6.33496 83.0628 6.33496C 82.32 6.33496 81.7595 6.57878 81.3812 7.06641C 81.0029 7.55404 80.8138 8.28092 80.8138 9.24707ZM 89.0752 5.50781L 89.0752 10.3682C 89.0752 10.9788 89.2142 11.4346 89.4922 11.7354C 89.7702 12.0361 90.2054 12.1865 90.7979 12.1865C 91.5817 12.1865 92.1537 11.9723 92.5137 11.5439C 92.8783 11.1156 93.0606 10.416 93.0606 9.44531L 93.0606 5.50781L 94.1953 5.50781L 94.1953 13L 93.2588 13L 93.0948 11.9951L 93.0332 11.9951C 92.8008 12.3643 92.4772 12.6468 92.0625 12.8428C 91.6524 13.0387 91.183 13.1367 90.6543 13.1367C 89.7429 13.1367 89.0593 12.9202 88.6035 12.4873C 88.1524 12.0544 87.9268 11.3617 87.9268 10.4092L 87.9268 5.50781L 89.0752 5.50781ZM 99.0935 13.1367C 98.0089 13.1367 97.168 12.804 96.571 12.1387C 95.9786 11.4688 95.6824 10.5231 95.6824 9.30176C 95.6824 8.0485 95.9831 7.08008 96.5847 6.39648C 97.1908 5.71289 98.0521 5.37109 99.1687 5.37109C 99.5287 5.37109 99.8887 5.40983 100.249 5.4873C 100.609 5.56478 100.891 5.65592 101.096 5.76074L 100.748 6.72461C 100.497 6.62435 100.224 6.54232 99.9275 6.47852C 99.6313 6.41016 99.3692 6.37598 99.1413 6.37598C 97.6192 6.37598 96.8581 7.34668 96.8581 9.28809C 96.8581 10.2087 97.0427 10.915 97.4118 11.4072C 97.7855 11.8994 98.337 12.1455 99.0661 12.1455C 99.6905 12.1455 100.331 12.0111 100.987 11.7422L 100.987 12.7471C 100.486 13.0068 99.8546 13.1367 99.0935 13.1367ZM 107.389 13L 107.389 8.15332C 107.389 7.54264 107.25 7.08691 106.972 6.78613C 106.694 6.48535 106.259 6.33496 105.666 6.33496C 104.878 6.33496 104.302 6.54915 103.937 6.97754C 103.577 7.40592 103.397 8.10775 103.397 9.08301L 103.397 13L 102.262 13L 102.262 2.36328L 103.397 2.36328L 103.397 5.58301C 103.397 5.97038 103.379 6.29167 103.342 6.54688L 103.411 6.54688C 103.634 6.18685 103.951 5.9043 104.361 5.69922C 104.775 5.48958 105.247 5.38477 105.776 5.38477C 106.692 5.38477 107.378 5.60352 107.833 6.04102C 108.294 6.47396 108.524 7.16439 108.524 8.1123L 108.524 13L 107.389 13ZM 113.518 13.1367C 112.41 13.1367 111.535 12.7995 110.893 12.125C 110.255 11.4505 109.936 10.514 109.936 9.31543C 109.936 8.10775 110.232 7.14844 110.824 6.4375C 111.421 5.72656 112.221 5.37109 113.224 5.37109C 114.163 5.37109 114.905 5.68099 115.452 6.30078C 115.999 6.91602 116.273 7.72949 116.273 8.74121L 116.273 9.45898L 111.111 9.45898C 111.134 10.3385 111.355 11.0062 111.775 11.4619C 112.198 11.9176 112.793 12.1455 113.559 12.1455C 114.365 12.1455 115.163 11.9769 115.951 11.6396L 115.951 12.6514C 115.55 12.8245 115.17 12.9476 114.81 13.0205C 114.454 13.098 114.024 13.1367 113.518 13.1367ZM 113.21 6.32129C 112.609 6.32129 112.128 6.51725 111.768 6.90918C 111.412 7.30111 111.203 7.84342 111.139 8.53613L 115.056 8.53613C 115.056 7.82064 114.896 7.27376 114.577 6.89551C 114.258 6.5127 113.803 6.32129 113.21 6.32129ZM 121.123 5.37109C 121.456 5.37109 121.754 5.39844 122.018 5.45312L 121.861 6.50586C 121.551 6.4375 121.278 6.40332 121.041 6.40332C 120.435 6.40332 119.915 6.64941 119.482 7.1416C 119.054 7.63379 118.84 8.24674 118.84 8.98047L 118.84 13L 117.705 13L 117.705 5.50781L 118.641 5.50781L 118.771 6.89551L 118.826 6.89551C 119.104 6.40788 119.439 6.0319 119.831 5.76758C 120.223 5.50326 120.653 5.37109 121.123 5.37109ZM 127.744 10.9561C 127.744 11.6533 127.484 12.1911 126.964 12.5693C 126.445 12.9476 125.716 13.1367 124.777 13.1367C 123.783 13.1367 123.009 12.9795 122.453 12.665L 122.453 11.6123C 122.813 11.7946 123.198 11.9382 123.608 12.043C 124.023 12.1478 124.421 12.2002 124.804 12.2002C 125.397 12.2002 125.852 12.1068 126.171 11.9199C 126.49 11.7285 126.65 11.4391 126.65 11.0518C 126.65 10.7601 126.522 10.5117 126.267 10.3066C 126.016 10.097 125.524 9.85091 124.791 9.56836C 124.093 9.30859 123.597 9.08301 123.3 8.8916C 123.009 8.69564 122.79 8.47461 122.644 8.22852C 122.503 7.98242 122.432 7.68848 122.432 7.34668C 122.432 6.736 122.68 6.25521 123.177 5.9043C 123.674 5.54883 124.355 5.37109 125.221 5.37109C 126.028 5.37109 126.816 5.53516 127.586 5.86328L 127.183 6.78613C 126.431 6.47624 125.75 6.32129 125.139 6.32129C 124.601 6.32129 124.196 6.4056 123.922 6.57422C 123.649 6.74284 123.512 6.97526 123.512 7.27148C 123.512 7.47201 123.562 7.6429 123.663 7.78418C 123.767 7.92546 123.934 8.0599 124.162 8.1875C 124.389 8.3151 124.827 8.49967 125.474 8.74121C 126.363 9.06478 126.962 9.39062 127.272 9.71875C 127.586 10.0469 127.744 10.4593 127.744 10.9561Z"/>
<path id="path5_fill" d="M 27.9653 3.90137C 26.867 3.90137 25.9988 4.26823 25.3608 5.00195C 24.7273 5.73112 24.4106 6.73145 24.4106 8.00293C 24.4106 9.31087 24.716 10.3226 25.3266 11.0381C 25.9419 11.749 26.8169 12.1045 27.9516 12.1045C 28.6489 12.1045 29.4441 11.9792 30.3374 11.7285L 30.3374 12.7471C 29.6447 13.0068 28.7902 13.1367 27.7739 13.1367C 26.3019 13.1367 25.1648 12.6901 24.3628 11.7969C 23.5652 10.9036 23.1665 9.63444 23.1665 7.98926C 23.1665 6.95931 23.3579 6.05697 23.7407 5.28223C 24.1281 4.50749 24.6841 3.91048 25.4087 3.49121C 26.1378 3.07194 26.9946 2.8623 27.979 2.8623C 29.0272 2.8623 29.9432 3.05371 30.727 3.43652L 30.2348 4.43457C 29.4783 4.0791 28.7218 3.90137 27.9653 3.90137ZM 35.256 5.37109C 35.5887 5.37109 35.8872 5.39844 36.1515 5.45312L 35.9943 6.50586C 35.6844 6.4375 35.411 6.40332 35.174 6.40332C 34.5679 6.40332 34.0483 6.64941 33.6154 7.1416C 33.187 7.63379 32.9728 8.24674 32.9728 8.98047L 32.9728 13L 31.8381 13L 31.8381 5.50781L 32.7746 5.50781L 32.9045 6.89551L 32.9591 6.89551C 33.2371 6.40788 33.5721 6.0319 33.964 5.76758C 34.356 5.50326 34.7866 5.37109 35.256 5.37109ZM 35.8544 5.50781L 37.0711 5.50781L 38.7118 9.78027C 39.0718 10.7555 39.2951 11.4596 39.3817 11.8926L 39.4364 11.8926C 39.4956 11.6602 39.6187 11.2637 39.8055 10.7031C 39.9969 10.138 40.6167 8.40625 41.6649 5.50781L 42.8817 5.50781L 39.662 14.0391C 39.343 14.8822 38.9693 15.4792 38.5409 15.8301C 38.117 16.1855 37.5952 16.3633 36.9754 16.3633C 36.6291 16.3633 36.2873 16.3245 35.9501 16.2471L 35.9501 15.3379C 36.2007 15.3926 36.481 15.4199 36.7909 15.4199C 37.5702 15.4199 38.1262 14.9824 38.4588 14.1074L 38.8758 13.041L 35.8544 5.50781ZM 47.0757 13.1367C 46.5881 13.1367 46.1415 13.0479 45.7359 12.8701C 45.3348 12.6878 44.9976 12.4098 44.7242 12.0361L 44.6421 12.0361C 44.6968 12.4736 44.7242 12.8883 44.7242 13.2803L 44.7242 16.3633L 43.5894 16.3633L 43.5894 5.50781L 44.5123 5.50781L 44.6695 6.5332L 44.7242 6.5332C 45.0158 6.12305 45.3554 5.82682 45.7427 5.64453C 46.1301 5.46224 46.5744 5.37109 47.0757 5.37109C 48.0692 5.37109 48.8348 5.71061 49.3726 6.38965C 49.9149 7.06868 50.1861 8.02116 50.1861 9.24707C 50.1861 10.4775 49.9104 11.4346 49.3589 12.1182C 48.8121 12.7972 48.051 13.1367 47.0757 13.1367ZM 46.9117 6.33496C 46.146 6.33496 45.5923 6.54688 45.2505 6.9707C 44.9087 7.39453 44.7333 8.06901 44.7242 8.99414L 44.7242 9.24707C 44.7242 10.2998 44.8996 11.054 45.2505 11.5098C 45.6014 11.9609 46.1643 12.1865 46.939 12.1865C 47.5861 12.1865 48.092 11.9245 48.4566 11.4004C 48.8257 10.8763 49.0103 10.154 49.0103 9.2334C 49.0103 8.29915 48.8257 7.58366 48.4566 7.08691C 48.092 6.58561 47.577 6.33496 46.9117 6.33496ZM 54.0862 12.2002C 54.2867 12.2002 54.4804 12.1865 54.6672 12.1592C 54.8541 12.1273 55.0022 12.0954 55.1116 12.0635L 55.1116 12.9316C 54.9885 12.9909 54.8062 13.0387 54.5647 13.0752C 54.3277 13.1162 54.1135 13.1367 53.9221 13.1367C 52.4729 13.1367 51.7483 12.3734 51.7483 10.8467L 51.7483 6.38965L 50.675 6.38965L 50.675 5.84277L 51.7483 5.37109L 52.2268 3.77148L 52.883 3.77148L 52.883 5.50781L 55.0569 5.50781L 55.0569 6.38965L 52.883 6.38965L 52.883 10.7988C 52.883 11.25 52.9901 11.5964 53.2043 11.8379C 53.4185 12.0794 53.7125 12.2002 54.0862 12.2002ZM 62.5732 9.24707C 62.5732 10.4684 62.2656 11.4232 61.6503 12.1113C 61.0351 12.7949 60.1852 13.1367 59.1005 13.1367C 58.4306 13.1367 57.8359 12.9795 57.3163 12.665C 56.7968 12.3506 56.3958 11.8994 56.1132 11.3115C 55.8307 10.7236 55.6894 10.0355 55.6894 9.24707C 55.6894 8.02572 55.9947 7.07552 56.6054 6.39648C 57.2161 5.71289 58.0637 5.37109 59.1484 5.37109C 60.1965 5.37109 61.0283 5.71973 61.6435 6.41699C 62.2633 7.11426 62.5732 8.05762 62.5732 9.24707ZM 56.8652 9.24707C 56.8652 10.2041 57.0566 10.9333 57.4394 11.4346C 57.8222 11.9359 58.385 12.1865 59.1279 12.1865C 59.8707 12.1865 60.4335 11.9382 60.8163 11.4414C 61.2037 10.9401 61.3974 10.2087 61.3974 9.24707C 61.3974 8.2946 61.2037 7.57227 60.8163 7.08008C 60.4335 6.58333 59.8661 6.33496 59.1142 6.33496C 58.3714 6.33496 57.8108 6.57878 57.4325 7.06641C 57.0543 7.55404 56.8652 8.28092 56.8652 9.24707ZM 67.0543 13.1367C 65.9697 13.1367 65.1289 12.804 64.5319 12.1387C 63.9394 11.4688 63.6432 10.5231 63.6432 9.30176C 63.6432 8.0485 63.944 7.08008 64.5455 6.39648C 65.1516 5.71289 66.013 5.37109 67.1295 5.37109C 67.4895 5.37109 67.8496 5.40983 68.2096 5.4873C 68.5696 5.56478 68.8522 5.65592 69.0572 5.76074L 68.7086 6.72461C 68.458 6.62435 68.1845 6.54232 67.8883 6.47852C 67.5921 6.41016 67.33 6.37598 67.1022 6.37598C 65.58 6.37598 64.819 7.34668 64.819 9.28809C 64.819 10.2087 65.0035 10.915 65.3727 11.4072C 65.7464 11.8994 66.2978 12.1455 67.027 12.1455C 67.6513 12.1455 68.2916 12.0111 68.9479 11.7422L 68.9479 12.7471C 68.4466 13.0068 67.8154 13.1367 67.0543 13.1367ZM 71.2894 5.50781L 71.2894 10.3682C 71.2894 10.9788 71.4284 11.4346 71.7064 11.7354C 71.9844 12.0361 72.4196 12.1865 73.012 12.1865C 73.7959 12.1865 74.3678 11.9723 74.7278 11.5439C 75.0924 11.1156 75.2747 10.416 75.2747 9.44531L 75.2747 5.50781L 76.4095 5.50781L 76.4095 13L 75.473 13L 75.3089 11.9951L 75.2474 11.9951C 75.015 12.3643 74.6914 12.6468 74.2767 12.8428C 73.8665 13.0387 73.3971 13.1367 72.8685 13.1367C 71.957 13.1367 71.2734 12.9202 70.8177 12.4873C 70.3665 12.0544 70.1409 11.3617 70.1409 10.4092L 70.1409 5.50781L 71.2894 5.50781ZM 81.7314 5.37109C 82.0641 5.37109 82.3626 5.39844 82.627 5.45312L 82.4697 6.50586C 82.1598 6.4375 81.8864 6.40332 81.6494 6.40332C 81.0433 6.40332 80.5238 6.64941 80.0908 7.1416C 79.6624 7.63379 79.4482 8.24674 79.4482 8.98047L 79.4482 13L 78.3135 13L 78.3135 5.50781L 79.25 5.50781L 79.3799 6.89551L 79.4346 6.89551C 79.7126 6.40788 80.0475 6.0319 80.4395 5.76758C 80.8314 5.50326 81.262 5.37109 81.7314 5.37109ZM 86.9372 5.37109C 87.2699 5.37109 87.5684 5.39844 87.8327 5.45312L 87.6755 6.50586C 87.3656 6.4375 87.0921 6.40332 86.8552 6.40332C 86.249 6.40332 85.7295 6.64941 85.2966 7.1416C 84.8682 7.63379 84.654 8.24674 84.654 8.98047L 84.654 13L 83.5192 13L 83.5192 5.50781L 84.4557 5.50781L 84.5856 6.89551L 84.6403 6.89551C 84.9183 6.40788 85.2533 6.0319 85.6452 5.76758C 86.0371 5.50326 86.4678 5.37109 86.9372 5.37109ZM 91.89 13.1367C 90.7826 13.1367 89.9076 12.7995 89.265 12.125C 88.627 11.4505 88.308 10.514 88.308 9.31543C 88.308 8.10775 88.6042 7.14844 89.1967 6.4375C 89.7937 5.72656 90.5935 5.37109 91.5961 5.37109C 92.5349 5.37109 93.2777 5.68099 93.8246 6.30078C 94.3715 6.91602 94.6449 7.72949 94.6449 8.74121L 94.6449 9.45898L 89.4838 9.45898C 89.5066 10.3385 89.7276 11.0062 90.1469 11.4619C 90.5707 11.9176 91.1654 12.1455 91.931 12.1455C 92.7377 12.1455 93.5352 11.9769 94.3236 11.6396L 94.3236 12.6514C 93.9226 12.8245 93.542 12.9476 93.182 13.0205C 92.8266 13.098 92.3959 13.1367 91.89 13.1367ZM 91.5824 6.32129C 90.9809 6.32129 90.5001 6.51725 90.14 6.90918C 89.7846 7.30111 89.5749 7.84342 89.5111 8.53613L 93.4281 8.53613C 93.4281 7.82064 93.2686 7.27376 92.9496 6.89551C 92.6306 6.5127 92.1749 6.32129 91.5824 6.32129ZM 101.204 13L 101.204 8.15332C 101.204 7.54264 101.065 7.08691 100.787 6.78613C 100.509 6.48535 100.074 6.33496 99.4815 6.33496C 98.6977 6.33496 98.1234 6.54688 97.7589 6.9707C 97.3943 7.39453 97.212 8.09408 97.212 9.06934L 97.212 13L 96.0772 13L 96.0772 5.50781L 97.0001 5.50781L 97.1846 6.5332L 97.2393 6.5332C 97.4718 6.16406 97.7976 5.87923 98.2169 5.67871C 98.6361 5.47363 99.1033 5.37109 99.6182 5.37109C 100.521 5.37109 101.2 5.58984 101.655 6.02734C 102.111 6.46029 102.339 7.15527 102.339 8.1123L 102.339 13L 101.204 13ZM 107.162 13.1367C 106.077 13.1367 105.236 12.804 104.639 12.1387C 104.047 11.4688 103.751 10.5231 103.751 9.30176C 103.751 8.0485 104.052 7.08008 104.653 6.39648C 105.259 5.71289 106.121 5.37109 107.237 5.37109C 107.597 5.37109 107.957 5.40983 108.317 5.4873C 108.677 5.56478 108.96 5.65592 109.165 5.76074L 108.816 6.72461C 108.566 6.62435 108.292 6.54232 107.996 6.47852C 107.7 6.41016 107.438 6.37598 107.21 6.37598C 105.688 6.37598 104.927 7.34668 104.927 9.28809C 104.927 10.2087 105.111 10.915 105.48 11.4072C 105.854 11.8994 106.405 12.1455 107.135 12.1455C 107.759 12.1455 108.399 12.0111 109.055 11.7422L 109.055 12.7471C 108.554 13.0068 107.923 13.1367 107.162 13.1367ZM 111.465 13L 110.331 13L 110.331 5.50781L 111.465 5.50781L 111.465 13ZM 110.235 3.47754C 110.235 3.21777 110.299 3.02865 110.426 2.91016C 110.554 2.78711 110.713 2.72559 110.905 2.72559C 111.087 2.72559 111.244 2.78711 111.376 2.91016C 111.509 3.0332 111.575 3.22233 111.575 3.47754C 111.575 3.73275 111.509 3.92415 111.376 4.05176C 111.244 4.1748 111.087 4.23633 110.905 4.23633C 110.713 4.23633 110.554 4.1748 110.426 4.05176C 110.299 3.92415 110.235 3.73275 110.235 3.47754ZM 116.527 13.1367C 115.42 13.1367 114.545 12.7995 113.902 12.125C 113.264 11.4505 112.945 10.514 112.945 9.31543C 112.945 8.10775 113.242 7.14844 113.834 6.4375C 114.431 5.72656 115.231 5.37109 116.234 5.37109C 117.172 5.37109 117.915 5.68099 118.462 6.30078C 119.009 6.91602 119.282 7.72949 119.282 8.74121L 119.282 9.45898L 114.121 9.45898C 114.144 10.3385 114.365 11.0062 114.784 11.4619C 115.208 11.9176 115.803 12.1455 116.568 12.1455C 117.375 12.1455 118.173 11.9769 118.961 11.6396L 118.961 12.6514C 118.56 12.8245 118.179 12.9476 117.819 13.0205C 117.464 13.098 117.033 13.1367 116.527 13.1367ZM 116.22 6.32129C 115.618 6.32129 115.138 6.51725 114.777 6.90918C 114.422 7.30111 114.212 7.84342 114.149 8.53613L 118.066 8.53613C 118.066 7.82064 117.906 7.27376 117.587 6.89551C 117.268 6.5127 116.812 6.32129 116.22 6.32129ZM 125.548 10.9561C 125.548 11.6533 125.288 12.1911 124.768 12.5693C 124.249 12.9476 123.52 13.1367 122.581 13.1367C 121.587 13.1367 120.813 12.9795 120.257 12.665L 120.257 11.6123C 120.617 11.7946 121.002 11.9382 121.412 12.043C 121.827 12.1478 122.225 12.2002 122.608 12.2002C 123.201 12.2002 123.656 12.1068 123.975 11.9199C 124.294 11.7285 124.454 11.4391 124.454 11.0518C 124.454 10.7601 124.326 10.5117 124.071 10.3066C 123.82 10.097 123.328 9.85091 122.595 9.56836C 121.897 9.30859 121.401 9.08301 121.104 8.8916C 120.813 8.69564 120.594 8.47461 120.448 8.22852C 120.307 7.98242 120.236 7.68848 120.236 7.34668C 120.236 6.736 120.485 6.25521 120.981 5.9043C 121.478 5.54883 122.159 5.37109 123.025 5.37109C 123.832 5.37109 124.62 5.53516 125.39 5.86328L 124.987 6.78613C 124.235 6.47624 123.554 6.32129 122.943 6.32129C 122.405 6.32129 122 6.4056 121.726 6.57422C 121.453 6.74284 121.316 6.97526 121.316 7.27148C 121.316 7.47201 121.366 7.6429 121.467 7.78418C 121.571 7.92546 121.738 8.0599 121.966 8.1875C 122.194 8.3151 122.631 8.49967 123.278 8.74121C 124.167 9.06478 124.766 9.39062 125.076 9.71875C 125.39 10.0469 125.548 10.4593 125.548 10.9561Z"/>
<path id="path6_fill" d="M 17.4871 5.91797C 17.4871 6.92969 17.1407 7.70898 16.448 8.25586C 15.7598 8.79818 14.7732 9.06934 13.488 9.06934L 12.3122 9.06934L 12.3122 13L 11.1501 13L 11.1501 3.00586L 13.741 3.00586C 16.2384 3.00586 17.4871 3.97656 17.4871 5.91797ZM 12.3122 8.07129L 13.3581 8.07129C 14.3881 8.07129 15.1332 7.90495 15.5935 7.57227C 16.0538 7.23958 16.2839 6.70638 16.2839 5.97266C 16.2839 5.31185 16.0675 4.81966 15.6345 4.49609C 15.2016 4.17253 14.5271 4.01074 13.6111 4.01074L 12.3122 4.01074L 12.3122 8.07129ZM 24.0326 13L 24.0326 8.15332C 24.0326 7.54264 23.8937 7.08691 23.6157 6.78613C 23.3377 6.48535 22.9024 6.33496 22.31 6.33496C 21.5216 6.33496 20.9451 6.54915 20.5805 6.97754C 20.2205 7.40592 20.0405 8.10775 20.0405 9.08301L 20.0405 13L 18.9057 13L 18.9057 2.36328L 20.0405 2.36328L 20.0405 5.58301C 20.0405 5.97038 20.0222 6.29167 19.9858 6.54688L 20.0541 6.54688C 20.2774 6.18685 20.5942 5.9043 21.0043 5.69922C 21.419 5.48958 21.8907 5.38477 22.4194 5.38477C 23.3354 5.38477 24.0213 5.60352 24.477 6.04102C 24.9373 6.47396 25.1674 7.16439 25.1674 8.1123L 25.1674 13L 24.0326 13ZM 33.463 9.24707C 33.463 10.4684 33.1554 11.4232 32.5402 12.1113C 31.9249 12.7949 31.075 13.1367 29.9904 13.1367C 29.3204 13.1367 28.7257 12.9795 28.2062 12.665C 27.6866 12.3506 27.2856 11.8994 27.0031 11.3115C 26.7205 10.7236 26.5792 10.0355 26.5792 9.24707C 26.5792 8.02572 26.8846 7.07552 27.4952 6.39648C 28.1059 5.71289 28.9536 5.37109 30.0382 5.37109C 31.0864 5.37109 31.9181 5.71973 32.5333 6.41699C 33.1531 7.11426 33.463 8.05762 33.463 9.24707ZM 27.755 9.24707C 27.755 10.2041 27.9464 10.9333 28.3292 11.4346C 28.712 11.9359 29.2749 12.1865 30.0177 12.1865C 30.7605 12.1865 31.3234 11.9382 31.7062 11.4414C 32.0935 10.9401 32.2872 10.2087 32.2872 9.24707C 32.2872 8.2946 32.0935 7.57227 31.7062 7.08008C 31.3234 6.58333 30.756 6.33496 30.004 6.33496C 29.2612 6.33496 28.7006 6.57878 28.3224 7.06641C 27.9441 7.55404 27.755 8.28092 27.755 9.24707ZM 40.077 13L 40.077 8.15332C 40.077 7.54264 39.938 7.08691 39.66 6.78613C 39.382 6.48535 38.9468 6.33496 38.3543 6.33496C 37.5705 6.33496 36.9962 6.54688 36.6317 6.9707C 36.2671 7.39453 36.0848 8.09408 36.0848 9.06934L 36.0848 13L 34.95 13L 34.95 5.50781L 35.8729 5.50781L 36.0574 6.5332L 36.1121 6.5332C 36.3445 6.16406 36.6704 5.87923 37.0897 5.67871C 37.5089 5.47363 37.9761 5.37109 38.491 5.37109C 39.3934 5.37109 40.0724 5.58984 40.5281 6.02734C 40.9839 6.46029 41.2117 7.15527 41.2117 8.1123L 41.2117 13L 40.077 13ZM 46.2056 13.1367C 45.0982 13.1367 44.2232 12.7995 43.5806 12.125C 42.9426 11.4505 42.6235 10.514 42.6235 9.31543C 42.6235 8.10775 42.9198 7.14844 43.5122 6.4375C 44.1092 5.72656 44.909 5.37109 45.9116 5.37109C 46.8504 5.37109 47.5933 5.68099 48.1401 6.30078C 48.687 6.91602 48.9605 7.72949 48.9605 8.74121L 48.9605 9.45898L 43.7993 9.45898C 43.8221 10.3385 44.0431 11.0062 44.4624 11.4619C 44.8862 11.9176 45.481 12.1455 46.2466 12.1455C 47.0532 12.1455 47.8508 11.9769 48.6392 11.6396L 48.6392 12.6514C 48.2381 12.8245 47.8576 12.9476 47.4976 13.0205C 47.1421 13.098 46.7114 13.1367 46.2056 13.1367ZM 45.898 6.32129C 45.2964 6.32129 44.8156 6.51725 44.4556 6.90918C 44.1001 7.30111 43.8905 7.84342 43.8267 8.53613L 47.7437 8.53613C 47.7437 7.82064 47.5842 7.27376 47.2651 6.89551C 46.9461 6.5127 46.4904 6.32129 45.898 6.32129ZM 57.3143 3.00586L 53.5888 13L 52.454 13L 56.1796 3.00586L 57.3143 3.00586ZM 65.7298 3.90137C 64.6314 3.90137 63.7633 4.26823 63.1253 5.00195C 62.4918 5.73112 62.1751 6.73145 62.1751 8.00293C 62.1751 9.31087 62.4804 10.3226 63.0911 11.0381C 63.7063 11.749 64.5813 12.1045 65.7161 12.1045C 66.4133 12.1045 67.2086 11.9792 68.1018 11.7285L 68.1018 12.7471C 67.4091 13.0068 66.5546 13.1367 65.5383 13.1367C 64.0663 13.1367 62.9293 12.6901 62.1272 11.7969C 61.3297 10.9036 60.9309 9.63444 60.9309 7.98926C 60.9309 6.95931 61.1223 6.05697 61.5051 5.28223C 61.8925 4.50749 62.4485 3.91048 63.1731 3.49121C 63.9023 3.07194 64.7591 2.8623 65.7434 2.8623C 66.7916 2.8623 67.7076 3.05371 68.4915 3.43652L 67.9993 4.43457C 67.2428 4.0791 66.4863 3.90137 65.7298 3.90137ZM 74.2099 13L 73.9843 11.9336L 73.9296 11.9336C 73.556 12.403 73.1823 12.722 72.8086 12.8906C 72.4394 13.0547 71.9768 13.1367 71.4209 13.1367C 70.678 13.1367 70.0947 12.9453 69.6709 12.5625C 69.2516 12.1797 69.042 11.6351 69.042 10.9287C 69.042 9.41569 70.2519 8.62272 72.6718 8.5498L 73.9433 8.50879L 73.9433 8.04395C 73.9433 7.45605 73.8157 7.02311 73.5605 6.74512C 73.3099 6.46257 72.9065 6.32129 72.3505 6.32129C 71.7262 6.32129 71.0198 6.5127 70.2314 6.89551L 69.8828 6.02734C 70.2519 5.82682 70.6552 5.6696 71.0927 5.55566C 71.5348 5.44173 71.9768 5.38477 72.4189 5.38477C 73.3121 5.38477 73.9729 5.58301 74.4013 5.97949C 74.8343 6.37598 75.0507 7.01172 75.0507 7.88672L 75.0507 13L 74.2099 13ZM 71.6464 12.2002C 72.3528 12.2002 72.9065 12.0065 73.3076 11.6191C 73.7132 11.2318 73.916 10.6895 73.916 9.99219L 73.916 9.31543L 72.7812 9.36328C 71.8789 9.39518 71.2272 9.53646 70.8261 9.78711C 70.4296 10.0332 70.2314 10.4183 70.2314 10.9424C 70.2314 11.3525 70.3545 11.6647 70.6005 11.8789C 70.8512 12.0931 71.1998 12.2002 71.6464 12.2002ZM 78.0211 13L 76.8864 13L 76.8864 2.36328L 78.0211 2.36328L 78.0211 13ZM 81.0531 13L 79.9183 13L 79.9183 2.36328L 81.0531 2.36328L 81.0531 13ZM 84.085 13L 82.9502 13L 82.9502 5.50781L 84.085 5.50781L 84.085 13ZM 82.8545 3.47754C 82.8545 3.21777 82.9183 3.02865 83.0459 2.91016C 83.1735 2.78711 83.333 2.72559 83.5244 2.72559C 83.7067 2.72559 83.864 2.78711 83.9961 2.91016C 84.1283 3.0332 84.1944 3.22233 84.1944 3.47754C 84.1944 3.73275 84.1283 3.92415 83.9961 4.05176C 83.864 4.1748 83.7067 4.23633 83.5244 4.23633C 83.333 4.23633 83.1735 4.1748 83.0459 4.05176C 82.9183 3.92415 82.8545 3.73275 82.8545 3.47754ZM 91.1091 13L 91.1091 8.15332C 91.1091 7.54264 90.9701 7.08691 90.6921 6.78613C 90.4141 6.48535 89.9789 6.33496 89.3865 6.33496C 88.6026 6.33496 88.0284 6.54688 87.6638 6.9707C 87.2992 7.39453 87.1169 8.09408 87.1169 9.06934L 87.1169 13L 85.9822 13L 85.9822 5.50781L 86.905 5.50781L 87.0896 6.5332L 87.1443 6.5332C 87.3767 6.16406 87.7025 5.87923 88.1218 5.67871C 88.5411 5.47363 89.0082 5.37109 89.5232 5.37109C 90.4255 5.37109 91.1046 5.58984 91.5603 6.02734C 92.016 6.46029 92.2439 7.15527 92.2439 8.1123L 92.2439 13L 91.1091 13ZM 100.205 5.50781L 100.205 6.22559L 98.8168 6.38965C 98.9444 6.54915 99.0583 6.75879 99.1586 7.01855C 99.2589 7.27376 99.309 7.56315 99.309 7.88672C 99.309 8.62044 99.0583 9.20605 98.557 9.64355C 98.0557 10.0811 97.3676 10.2998 96.4926 10.2998C 96.2693 10.2998 96.0596 10.2816 95.8637 10.2451C 95.3806 10.5003 95.1391 10.8216 95.1391 11.209C 95.1391 11.4141 95.2234 11.5667 95.392 11.667C 95.5606 11.7627 95.85 11.8105 96.2602 11.8105L 97.5863 11.8105C 98.3975 11.8105 99.0196 11.9814 99.4526 12.3232C 99.8901 12.665 100.109 13.1618 100.109 13.8135C 100.109 14.6429 99.7761 15.2741 99.1108 15.707C 98.4454 16.1445 97.4747 16.3633 96.1986 16.3633C 95.2188 16.3633 94.4623 16.181 93.9291 15.8164C 93.4005 15.4518 93.1361 14.9368 93.1361 14.2715C 93.1361 13.8158 93.282 13.4215 93.5736 13.0889C 93.8653 12.7562 94.2755 12.5306 94.8041 12.4121C 94.6127 12.3255 94.4509 12.1911 94.3188 12.0088C 94.1912 11.8265 94.1274 11.6146 94.1274 11.373C 94.1274 11.0996 94.2003 10.8604 94.3461 10.6553C 94.4919 10.4502 94.7221 10.252 95.0365 10.0605C 94.6492 9.90104 94.3324 9.62988 94.0863 9.24707C 93.8448 8.86426 93.724 8.42676 93.724 7.93457C 93.724 7.11426 93.9701 6.48307 94.4623 6.04102C 94.9545 5.5944 95.6518 5.37109 96.5541 5.37109C 96.946 5.37109 97.2992 5.41667 97.6137 5.50781L 100.205 5.50781ZM 94.2299 14.2578C 94.2299 14.6634 94.4008 14.971 94.7426 15.1807C 95.0844 15.3903 95.5743 15.4951 96.2123 15.4951C 97.1648 15.4951 97.8689 15.3516 98.3246 15.0645C 98.7849 14.7819 99.0151 14.3968 99.0151 13.9092C 99.0151 13.5036 98.8897 13.221 98.6391 13.0615C 98.3884 12.9066 97.9167 12.8291 97.224 12.8291L 95.8637 12.8291C 95.3487 12.8291 94.9477 12.9521 94.6606 13.1982C 94.3735 13.4443 94.2299 13.7975 94.2299 14.2578ZM 94.8451 7.90723C 94.8451 8.43132 94.9932 8.8278 95.2895 9.09668C 95.5857 9.36556 95.9981 9.5 96.5268 9.5C 97.6342 9.5 98.1879 8.96224 98.1879 7.88672C 98.1879 6.76107 97.6274 6.19824 96.5063 6.19824C 95.9731 6.19824 95.5629 6.3418 95.2758 6.62891C 94.9887 6.91602 94.8451 7.34212 94.8451 7.90723ZM 108.811 3.90137C 107.713 3.90137 106.845 4.26823 106.207 5.00195C 105.573 5.73112 105.257 6.73145 105.257 8.00293C 105.257 9.31087 105.562 10.3226 106.173 11.0381C 106.788 11.749 107.663 12.1045 108.798 12.1045C 109.495 12.1045 110.29 11.9792 111.183 11.7285L 111.183 12.7471C 110.491 13.0068 109.636 13.1367 108.62 13.1367C 107.148 13.1367 106.011 12.6901 105.209 11.7969C 104.411 10.9036 104.012 9.63444 104.012 7.98926C 104.012 6.95931 104.204 6.05697 104.587 5.28223C 104.974 4.50749 105.53 3.91048 106.255 3.49121C 106.984 3.07194 107.841 2.8623 108.825 2.8623C 109.873 2.8623 110.789 3.05371 111.573 3.43652L 111.081 4.43457C 110.324 4.0791 109.568 3.90137 108.811 3.90137ZM 117.291 13L 117.066 11.9336L 117.011 11.9336C 116.638 12.403 116.264 12.722 115.89 12.8906C 115.521 13.0547 115.058 13.1367 114.502 13.1367C 113.76 13.1367 113.176 12.9453 112.752 12.5625C 112.333 12.1797 112.124 11.6351 112.124 10.9287C 112.124 9.41569 113.333 8.62272 115.753 8.5498L 117.025 8.50879L 117.025 8.04395C 117.025 7.45605 116.897 7.02311 116.642 6.74512C 116.391 6.46257 115.988 6.32129 115.432 6.32129C 114.808 6.32129 114.101 6.5127 113.313 6.89551L 112.964 6.02734C 113.333 5.82682 113.737 5.6696 114.174 5.55566C 114.616 5.44173 115.058 5.38477 115.5 5.38477C 116.394 5.38477 117.055 5.58301 117.483 5.97949C 117.916 6.37598 118.132 7.01172 118.132 7.88672L 118.132 13L 117.291 13ZM 114.728 12.2002C 115.434 12.2002 115.988 12.0065 116.389 11.6191C 116.795 11.2318 116.998 10.6895 116.998 9.99219L 116.998 9.31543L 115.863 9.36328C 114.96 9.39518 114.309 9.53646 113.908 9.78711C 113.511 10.0332 113.313 10.4183 113.313 10.9424C 113.313 11.3525 113.436 11.6647 113.682 11.8789C 113.933 12.0931 114.281 12.2002 114.728 12.2002ZM 123.386 5.37109C 123.719 5.37109 124.017 5.39844 124.281 5.45312L 124.124 6.50586C 123.814 6.4375 123.541 6.40332 123.304 6.40332C 122.698 6.40332 122.178 6.64941 121.745 7.1416C 121.317 7.63379 121.103 8.24674 121.103 8.98047L 121.103 13L 119.968 13L 119.968 5.50781L 120.904 5.50781L 121.034 6.89551L 121.089 6.89551C 121.367 6.40788 121.702 6.0319 122.094 5.76758C 122.486 5.50326 122.917 5.37109 123.386 5.37109ZM 130.273 11.9951L 130.212 11.9951C 129.688 12.7562 128.904 13.1367 127.86 13.1367C 126.88 13.1367 126.117 12.8018 125.57 12.1318C 125.028 11.4619 124.757 10.5094 124.757 9.27441C 124.757 8.03939 125.03 7.08008 125.577 6.39648C 126.124 5.71289 126.885 5.37109 127.86 5.37109C 128.877 5.37109 129.656 5.74023 130.198 6.47852L 130.287 6.47852L 130.239 5.93848L 130.212 5.41211L 130.212 2.36328L 131.347 2.36328L 131.347 13L 130.424 13L 130.273 11.9951ZM 128.004 12.1865C 128.779 12.1865 129.339 11.9769 129.685 11.5576C 130.036 11.1338 130.212 10.4525 130.212 9.51367L 130.212 9.27441C 130.212 8.21257 130.034 7.45605 129.679 7.00488C 129.328 6.54915 128.765 6.32129 127.99 6.32129C 127.325 6.32129 126.814 6.58105 126.459 7.10059C 126.108 7.61556 125.932 8.34473 125.932 9.28809C 125.932 10.2451 126.108 10.9674 126.459 11.4551C 126.81 11.9427 127.325 12.1865 128.004 12.1865ZM 138.084 10.9561C 138.084 11.6533 137.824 12.1911 137.304 12.5693C 136.785 12.9476 136.056 13.1367 135.117 13.1367C 134.123 13.1367 133.349 12.9795 132.793 12.665L 132.793 11.6123C 133.153 11.7946 133.538 11.9382 133.948 12.043C 134.363 12.1478 134.761 12.2002 135.144 12.2002C 135.737 12.2002 136.192 12.1068 136.511 11.9199C 136.83 11.7285 136.99 11.4391 136.99 11.0518C 136.99 10.7601 136.862 10.5117 136.607 10.3066C 136.356 10.097 135.864 9.85091 135.13 9.56836C 134.433 9.30859 133.936 9.08301 133.64 8.8916C 133.349 8.69564 133.13 8.47461 132.984 8.22852C 132.843 7.98242 132.772 7.68848 132.772 7.34668C 132.772 6.736 133.02 6.25521 133.517 5.9043C 134.014 5.54883 134.695 5.37109 135.561 5.37109C 136.368 5.37109 137.156 5.53516 137.926 5.86328L 137.523 6.78613C 136.771 6.47624 136.09 6.32129 135.479 6.32129C 134.941 6.32129 134.536 6.4056 134.262 6.57422C 133.989 6.74284 133.852 6.97526 133.852 7.27148C 133.852 7.47201 133.902 7.6429 134.003 7.78418C 134.107 7.92546 134.274 8.0599 134.502 8.1875C 134.729 8.3151 135.167 8.49967 135.814 8.74121C 136.703 9.06478 137.302 9.39062 137.612 9.71875C 137.926 10.0469 138.084 10.4593 138.084 10.9561Z"/>
<path id="path7_fill" d="M 48.6942 8.84375L 48.6942 13L 47.5321 13L 47.5321 3.00586L 50.2733 3.00586C 51.4992 3.00586 52.4039 3.24056 52.9872 3.70996C 53.5751 4.17936 53.869 4.88574 53.869 5.8291C 53.869 7.15072 53.1991 8.04395 51.8593 8.50879L 54.5731 13L 53.1991 13L 50.7792 8.84375L 48.6942 8.84375ZM 48.6942 7.8457L 50.287 7.8457C 51.1073 7.8457 51.7089 7.68392 52.0917 7.36035C 52.4745 7.03223 52.6659 6.54232 52.6659 5.89062C 52.6659 5.22982 52.4699 4.75358 52.078 4.46191C 51.6906 4.17025 51.0663 4.02441 50.205 4.02441L 48.6942 4.02441L 48.6942 7.8457ZM 58.6715 13.1367C 57.564 13.1367 56.689 12.7995 56.0465 12.125C 55.4084 11.4505 55.0894 10.514 55.0894 9.31543C 55.0894 8.10775 55.3857 7.14844 55.9781 6.4375C 56.5751 5.72656 57.3749 5.37109 58.3775 5.37109C 59.3163 5.37109 60.0592 5.68099 60.606 6.30078C 61.1529 6.91602 61.4263 7.72949 61.4263 8.74121L 61.4263 9.45898L 56.2652 9.45898C 56.288 10.3385 56.509 11.0062 56.9283 11.4619C 57.3521 11.9176 57.9469 12.1455 58.7125 12.1455C 59.5191 12.1455 60.3166 11.9769 61.1051 11.6396L 61.1051 12.6514C 60.704 12.8245 60.3235 12.9476 59.9635 13.0205C 59.608 13.098 59.1773 13.1367 58.6715 13.1367ZM 58.3638 6.32129C 57.7623 6.32129 57.2815 6.51725 56.9215 6.90918C 56.566 7.30111 56.3564 7.84342 56.2926 8.53613L 60.2096 8.53613C 60.2096 7.82064 60.05 7.27376 59.731 6.89551C 59.412 6.5127 58.9563 6.32129 58.3638 6.32129ZM 65.8528 13.1367C 64.7682 13.1367 63.9274 12.804 63.3303 12.1387C 62.7379 11.4688 62.4417 10.5231 62.4417 9.30176C 62.4417 8.0485 62.7425 7.08008 63.344 6.39648C 63.9501 5.71289 64.8115 5.37109 65.928 5.37109C 66.288 5.37109 66.6481 5.40983 67.0081 5.4873C 67.3681 5.56478 67.6507 5.65592 67.8557 5.76074L 67.5071 6.72461C 67.2565 6.62435 66.983 6.54232 66.6868 6.47852C 66.3906 6.41016 66.1285 6.37598 65.9007 6.37598C 64.3785 6.37598 63.6175 7.34668 63.6175 9.28809C 63.6175 10.2087 63.802 10.915 64.1712 11.4072C 64.5449 11.8994 65.0963 12.1455 65.8255 12.1455C 66.4498 12.1455 67.0901 12.0111 67.7464 11.7422L 67.7464 12.7471C 67.2451 13.0068 66.6139 13.1367 65.8528 13.1367ZM 67.832 5.50781L 69.0488 5.50781L 70.6894 9.78027C 71.0494 10.7555 71.2728 11.4596 71.3593 11.8926L 71.414 11.8926C 71.4733 11.6602 71.5963 11.2637 71.7832 10.7031C 71.9746 10.138 72.5944 8.40625 73.6425 5.50781L 74.8593 5.50781L 71.6396 14.0391C 71.3206 14.8822 70.9469 15.4792 70.5185 15.8301C 70.0947 16.1855 69.5729 16.3633 68.9531 16.3633C 68.6067 16.3633 68.2649 16.3245 67.9277 16.2471L 67.9277 15.3379C 68.1784 15.3926 68.4586 15.4199 68.7685 15.4199C 69.5478 15.4199 70.1038 14.9824 70.4365 14.1074L 70.8535 13.041L 67.832 5.50781ZM 78.5612 13.1367C 77.4766 13.1367 76.6357 12.804 76.0387 12.1387C 75.4463 11.4688 75.1501 10.5231 75.1501 9.30176C 75.1501 8.0485 75.4508 7.08008 76.0524 6.39648C 76.6585 5.71289 77.5198 5.37109 78.6364 5.37109C 78.9964 5.37109 79.3564 5.40983 79.7165 5.4873C 80.0765 5.56478 80.359 5.65592 80.5641 5.76074L 80.2155 6.72461C 79.9648 6.62435 79.6914 6.54232 79.3952 6.47852C 79.0989 6.41016 78.8369 6.37598 78.609 6.37598C 77.0869 6.37598 76.3258 7.34668 76.3258 9.28809C 76.3258 10.2087 76.5104 10.915 76.8795 11.4072C 77.2532 11.8994 77.8047 12.1455 78.5338 12.1455C 79.1582 12.1455 79.7985 12.0111 80.4547 11.7422L 80.4547 12.7471C 79.9534 13.0068 79.3223 13.1367 78.5612 13.1367ZM 82.8646 13L 81.7298 13L 81.7298 2.36328L 82.8646 2.36328L 82.8646 13ZM 85.8965 13L 84.7617 13L 84.7617 5.50781L 85.8965 5.50781L 85.8965 13ZM 84.666 3.47754C 84.666 3.21777 84.7298 3.02865 84.8575 2.91016C 84.9851 2.78711 85.1446 2.72559 85.336 2.72559C 85.5183 2.72559 85.6755 2.78711 85.8076 2.91016C 85.9398 3.0332 86.0059 3.22233 86.0059 3.47754C 86.0059 3.73275 85.9398 3.92415 85.8076 4.05176C 85.6755 4.1748 85.5183 4.23633 85.336 4.23633C 85.1446 4.23633 84.9851 4.1748 84.8575 4.05176C 84.7298 3.92415 84.666 3.73275 84.666 3.47754ZM 92.9206 13L 92.9206 8.15332C 92.9206 7.54264 92.7816 7.08691 92.5036 6.78613C 92.2256 6.48535 91.7904 6.33496 91.198 6.33496C 90.4141 6.33496 89.8399 6.54688 89.4753 6.9707C 89.1107 7.39453 88.9284 8.09408 88.9284 9.06934L 88.9284 13L 87.7937 13L 87.7937 5.50781L 88.7165 5.50781L 88.9011 6.5332L 88.9558 6.5332C 89.1882 6.16406 89.5141 5.87923 89.9333 5.67871C 90.3526 5.47363 90.8197 5.37109 91.3347 5.37109C 92.237 5.37109 92.9161 5.58984 93.3718 6.02734C 93.8275 6.46029 94.0554 7.15527 94.0554 8.1123L 94.0554 13L 92.9206 13ZM 102.016 5.50781L 102.016 6.22559L 100.628 6.38965C 100.756 6.54915 100.87 6.75879 100.97 7.01855C 101.07 7.27376 101.121 7.56315 101.121 7.88672C 101.121 8.62044 100.87 9.20605 100.369 9.64355C 99.8673 10.0811 99.1791 10.2998 98.3041 10.2998C 98.0808 10.2998 97.8712 10.2816 97.6752 10.2451C 97.1921 10.5003 96.9506 10.8216 96.9506 11.209C 96.9506 11.4141 97.0349 11.5667 97.2035 11.667C 97.3722 11.7627 97.6615 11.8105 98.0717 11.8105L 99.3979 11.8105C 100.209 11.8105 100.831 11.9814 101.264 12.3232C 101.702 12.665 101.92 13.1618 101.92 13.8135C 101.92 14.6429 101.588 15.2741 100.922 15.707C 100.257 16.1445 99.2862 16.3633 98.0102 16.3633C 97.0304 16.3633 96.2738 16.181 95.7406 15.8164C 95.212 15.4518 94.9477 14.9368 94.9477 14.2715C 94.9477 13.8158 95.0935 13.4215 95.3852 13.0889C 95.6768 12.7562 96.087 12.5306 96.6156 12.4121C 96.4242 12.3255 96.2625 12.1911 96.1303 12.0088C 96.0027 11.8265 95.9389 11.6146 95.9389 11.373C 95.9389 11.0996 96.0118 10.8604 96.1576 10.6553C 96.3035 10.4502 96.5336 10.252 96.8481 10.0605C 96.4607 9.90104 96.144 9.62988 95.8979 9.24707C 95.6563 8.86426 95.5356 8.42676 95.5356 7.93457C 95.5356 7.11426 95.7817 6.48307 96.2738 6.04102C 96.766 5.5944 97.4633 5.37109 98.3656 5.37109C 98.7576 5.37109 99.1108 5.41667 99.4252 5.50781L 102.016 5.50781ZM 96.0414 14.2578C 96.0414 14.6634 96.2123 14.971 96.5541 15.1807C 96.8959 15.3903 97.3858 15.4951 98.0238 15.4951C 98.9763 15.4951 99.6804 15.3516 100.136 15.0645C 100.596 14.7819 100.827 14.3968 100.827 13.9092C 100.827 13.5036 100.701 13.221 100.451 13.0615C 100.2 12.9066 99.7283 12.8291 99.0356 12.8291L 97.6752 12.8291C 97.1602 12.8291 96.7592 12.9521 96.4721 13.1982C 96.185 13.4443 96.0414 13.7975 96.0414 14.2578ZM 96.6567 7.90723C 96.6567 8.43132 96.8048 8.8278 97.101 9.09668C 97.3972 9.36556 97.8097 9.5 98.3383 9.5C 99.4457 9.5 99.9994 8.96224 99.9994 7.88672C 99.9994 6.76107 99.4389 6.19824 98.3178 6.19824C 97.7846 6.19824 97.3744 6.3418 97.0873 6.62891C 96.8002 6.91602 96.6567 7.34212 96.6567 7.90723Z"/>
<path id="path8_fill" d="M 49.9742 7.76367L 53.3716 7.76367L 53.3716 12.624C 52.843 12.7926 52.3052 12.9202 51.7583 13.0068C 51.2115 13.0934 50.578 13.1367 49.858 13.1367C 48.3449 13.1367 47.1669 12.6878 46.3238 11.79C 45.4807 10.8877 45.0591 9.62533 45.0591 8.00293C 45.0591 6.96387 45.2665 6.05469 45.6812 5.27539C 46.1005 4.49154 46.702 3.89453 47.4859 3.48438C 48.2697 3.06966 49.188 2.8623 50.2408 2.8623C 51.3072 2.8623 52.3007 3.05827 53.2212 3.4502L 52.7701 4.47559C 51.8677 4.09277 50.9996 3.90137 50.1656 3.90137C 48.9488 3.90137 47.9986 4.26367 47.315 4.98828C 46.6314 5.71289 46.2896 6.71777 46.2896 8.00293C 46.2896 9.35189 46.6177 10.375 47.274 11.0723C 47.9348 11.7695 48.9032 12.1182 50.1792 12.1182C 50.872 12.1182 51.5487 12.0384 52.2095 11.8789L 52.2095 8.80273L 49.9742 8.80273L 49.9742 7.76367ZM 56.2327 13L 55.0979 13L 55.0979 5.50781L 56.2327 5.50781L 56.2327 13ZM 55.0022 3.47754C 55.0022 3.21777 55.066 3.02865 55.1936 2.91016C 55.3212 2.78711 55.4807 2.72559 55.6721 2.72559C 55.8544 2.72559 56.0116 2.78711 56.1438 2.91016C 56.2759 3.0332 56.342 3.22233 56.342 3.47754C 56.342 3.73275 56.2759 3.92415 56.1438 4.05176C 56.0116 4.1748 55.8544 4.23633 55.6721 4.23633C 55.4807 4.23633 55.3212 4.1748 55.1936 4.05176C 55.066 3.92415 55.0022 3.73275 55.0022 3.47754ZM 61.5068 6.38965L 59.5995 6.38965L 59.5995 13L 58.4648 13L 58.4648 6.38965L 57.1249 6.38965L 57.1249 5.87695L 58.4648 5.4668L 58.4648 5.0498C 58.4648 3.20866 59.2691 2.28809 60.8779 2.28809C 61.2743 2.28809 61.7392 2.36784 62.2724 2.52734L 61.9784 3.43652C 61.5409 3.29525 61.1672 3.22461 60.8574 3.22461C 60.429 3.22461 60.1122 3.36816 59.9072 3.65527C 59.7021 3.93783 59.5995 4.39355 59.5995 5.02246L 59.5995 5.50781L 61.5068 5.50781L 61.5068 6.38965ZM 64.7848 12.2002C 64.9853 12.2002 65.179 12.1865 65.3658 12.1592C 65.5527 12.1273 65.7008 12.0954 65.8102 12.0635L 65.8102 12.9316C 65.6871 12.9909 65.5048 13.0387 65.2633 13.0752C 65.0263 13.1162 64.8121 13.1367 64.6207 13.1367C 63.1715 13.1367 62.4469 12.3734 62.4469 10.8467L 62.4469 6.38965L 61.3737 6.38965L 61.3737 5.84277L 62.4469 5.37109L 62.9254 3.77148L 63.5817 3.77148L 63.5817 5.50781L 65.7555 5.50781L 65.7555 6.38965L 63.5817 6.38965L 63.5817 10.7988C 63.5817 11.25 63.6888 11.5964 63.903 11.8379C 64.1171 12.0794 64.4111 12.2002 64.7848 12.2002ZM 74.3828 3.90137C 73.2845 3.90137 72.4163 4.26823 71.7783 5.00195C 71.1449 5.73112 70.8281 6.73145 70.8281 8.00293C 70.8281 9.31087 71.1335 10.3226 71.7441 11.0381C 72.3594 11.749 73.2344 12.1045 74.3691 12.1045C 75.0664 12.1045 75.8617 11.9792 76.7549 11.7285L 76.7549 12.7471C 76.0622 13.0068 75.2077 13.1367 74.1914 13.1367C 72.7194 13.1367 71.5824 12.6901 70.7803 11.7969C 69.9827 10.9036 69.584 9.63444 69.584 7.98926C 69.584 6.95931 69.7754 6.05697 70.1582 5.28223C 70.5456 4.50749 71.1016 3.91048 71.8262 3.49121C 72.5553 3.07194 73.4121 2.8623 74.3965 2.8623C 75.4447 2.8623 76.3607 3.05371 77.1445 3.43652L 76.6523 4.43457C 75.8958 4.0791 75.1393 3.90137 74.3828 3.90137ZM 82.863 13L 82.6374 11.9336L 82.5827 11.9336C 82.209 12.403 81.8353 12.722 81.4616 12.8906C 81.0925 13.0547 80.6299 13.1367 80.0739 13.1367C 79.3311 13.1367 78.7477 12.9453 78.3239 12.5625C 77.9047 12.1797 77.695 11.6351 77.695 10.9287C 77.695 9.41569 78.905 8.62272 81.3249 8.5498L 82.5964 8.50879L 82.5964 8.04395C 82.5964 7.45605 82.4688 7.02311 82.2136 6.74512C 81.9629 6.46257 81.5596 6.32129 81.0036 6.32129C 80.3793 6.32129 79.6729 6.5127 78.8845 6.89551L 78.5358 6.02734C 78.905 5.82682 79.3083 5.6696 79.7458 5.55566C 80.1879 5.44173 80.6299 5.38477 81.072 5.38477C 81.9652 5.38477 82.626 5.58301 83.0544 5.97949C 83.4873 6.37598 83.7038 7.01172 83.7038 7.88672L 83.7038 13L 82.863 13ZM 80.2995 12.2002C 81.0059 12.2002 81.5596 12.0065 81.9606 11.6191C 82.3662 11.2318 82.569 10.6895 82.569 9.99219L 82.569 9.31543L 81.4343 9.36328C 80.5319 9.39518 79.8802 9.53646 79.4792 9.78711C 79.0827 10.0332 78.8845 10.4183 78.8845 10.9424C 78.8845 11.3525 79.0075 11.6647 79.2536 11.8789C 79.5043 12.0931 79.8529 12.2002 80.2995 12.2002ZM 88.9574 5.37109C 89.2901 5.37109 89.5886 5.39844 89.8529 5.45312L 89.6957 6.50586C 89.3858 6.4375 89.1124 6.40332 88.8754 6.40332C 88.2693 6.40332 87.7497 6.64941 87.3168 7.1416C 86.8884 7.63379 86.6742 8.24674 86.6742 8.98047L 86.6742 13L 85.5394 13L 85.5394 5.50781L 86.476 5.50781L 86.6058 6.89551L 86.6605 6.89551C 86.9385 6.40788 87.2735 6.0319 87.6654 5.76758C 88.0573 5.50326 88.488 5.37109 88.9574 5.37109ZM 95.8448 11.9951L 95.7833 11.9951C 95.2592 12.7562 94.4753 13.1367 93.4317 13.1367C 92.4519 13.1367 91.6886 12.8018 91.1417 12.1318C 90.5994 11.4619 90.3282 10.5094 90.3282 9.27441C 90.3282 8.03939 90.6016 7.08008 91.1485 6.39648C 91.6954 5.71289 92.4565 5.37109 93.4317 5.37109C 94.448 5.37109 95.2273 5.74023 95.7696 6.47852L 95.8585 6.47852L 95.8106 5.93848L 95.7833 5.41211L 95.7833 2.36328L 96.918 2.36328L 96.918 13L 95.9952 13L 95.8448 11.9951ZM 93.5753 12.1865C 94.35 12.1865 94.9106 11.9769 95.2569 11.5576C 95.6078 11.1338 95.7833 10.4525 95.7833 9.51367L 95.7833 9.27441C 95.7833 8.21257 95.6055 7.45605 95.2501 7.00488C 94.8992 6.54915 94.3363 6.32129 93.5616 6.32129C 92.8962 6.32129 92.3858 6.58105 92.0303 7.10059C 91.6794 7.61556 91.504 8.34473 91.504 9.28809C 91.504 10.2451 91.6794 10.9674 92.0303 11.4551C 92.3813 11.9427 92.8962 12.1865 93.5753 12.1865ZM 103.655 10.9561C 103.655 11.6533 103.395 12.1911 102.876 12.5693C 102.356 12.9476 101.627 13.1367 100.688 13.1367C 99.6948 13.1367 98.92 12.9795 98.364 12.665L 98.364 11.6123C 98.7241 11.7946 99.1091 11.9382 99.5193 12.043C 99.934 12.1478 100.333 12.2002 100.716 12.2002C 101.308 12.2002 101.764 12.1068 102.083 11.9199C 102.402 11.7285 102.561 11.4391 102.561 11.0518C 102.561 10.7601 102.434 10.5117 102.178 10.3066C 101.928 10.097 101.436 9.85091 100.702 9.56836C 100.005 9.30859 99.5079 9.08301 99.2117 8.8916C 98.92 8.69564 98.7013 8.47461 98.5554 8.22852C 98.4142 7.98242 98.3435 7.68848 98.3435 7.34668C 98.3435 6.736 98.5919 6.25521 99.0886 5.9043C 99.5854 5.54883 100.267 5.37109 101.133 5.37109C 101.939 5.37109 102.728 5.53516 103.498 5.86328L 103.094 6.78613C 102.343 6.47624 101.661 6.32129 101.051 6.32129C 100.513 6.32129 100.107 6.4056 99.8338 6.57422C 99.5603 6.74284 99.4236 6.97526 99.4236 7.27148C 99.4236 7.47201 99.4737 7.6429 99.574 7.78418C 99.6788 7.92546 99.8451 8.0599 100.073 8.1875C 100.301 8.3151 100.738 8.49967 101.386 8.74121C 102.274 9.06478 102.873 9.39062 103.183 9.71875C 103.498 10.0469 103.655 10.4593 103.655 10.9561Z"/>
<path id="path9_fill" d="M 8.27905 13L 8.27905 3.00586L 9.44115 3.00586L 9.44115 13L 8.27905 13ZM 16.6362 13L 16.6362 8.15332C 16.6362 7.54264 16.4972 7.08691 16.2192 6.78613C 15.9412 6.48535 15.506 6.33496 14.9135 6.33496C 14.1297 6.33496 13.5554 6.54688 13.1909 6.9707C 12.8263 7.39453 12.644 8.09408 12.644 9.06934L 12.644 13L 11.5092 13L 11.5092 5.50781L 12.4321 5.50781L 12.6166 6.5332L 12.6713 6.5332C 12.9037 6.16406 13.2296 5.87923 13.6489 5.67871C 14.0681 5.47363 14.5353 5.37109 15.0502 5.37109C 15.9526 5.37109 16.6316 5.58984 17.0873 6.02734C 17.5431 6.46029 17.7709 7.15527 17.7709 8.1123L 17.7709 13L 16.6362 13ZM 22.0197 12.2002C 22.2202 12.2002 22.4139 12.1865 22.6007 12.1592C 22.7876 12.1273 22.9357 12.0954 23.045 12.0635L 23.045 12.9316C 22.922 12.9909 22.7397 13.0387 22.4982 13.0752C 22.2612 13.1162 22.047 13.1367 21.8556 13.1367C 20.4064 13.1367 19.6818 12.3734 19.6818 10.8467L 19.6818 6.38965L 18.6085 6.38965L 18.6085 5.84277L 19.6818 5.37109L 20.1603 3.77148L 20.8165 3.77148L 20.8165 5.50781L 22.9904 5.50781L 22.9904 6.38965L 20.8165 6.38965L 20.8165 10.7988C 20.8165 11.25 20.9236 11.5964 21.1378 11.8379C 21.352 12.0794 21.646 12.2002 22.0197 12.2002ZM 27.2049 13.1367C 26.0975 13.1367 25.2225 12.7995 24.5799 12.125C 23.9419 11.4505 23.6229 10.514 23.6229 9.31543C 23.6229 8.10775 23.9191 7.14844 24.5115 6.4375C 25.1085 5.72656 25.9083 5.37109 26.911 5.37109C 27.8498 5.37109 28.5926 5.68099 29.1395 6.30078C 29.6863 6.91602 29.9598 7.72949 29.9598 8.74121L 29.9598 9.45898L 24.7986 9.45898C 24.8214 10.3385 25.0425 11.0062 25.4617 11.4619C 25.8856 11.9176 26.4803 12.1455 27.2459 12.1455C 28.0526 12.1455 28.8501 11.9769 29.6385 11.6396L 29.6385 12.6514C 29.2375 12.8245 28.8569 12.9476 28.4969 13.0205C 28.1414 13.098 27.7108 13.1367 27.2049 13.1367ZM 26.8973 6.32129C 26.2957 6.32129 25.8149 6.51725 25.4549 6.90918C 25.0994 7.30111 24.8898 7.84342 24.826 8.53613L 28.743 8.53613C 28.743 7.82064 28.5835 7.27376 28.2645 6.89551C 27.9455 6.5127 27.4897 6.32129 26.8973 6.32129ZM 34.8101 5.37109C 35.1427 5.37109 35.4412 5.39844 35.7056 5.45312L 35.5483 6.50586C 35.2384 6.4375 34.965 6.40332 34.728 6.40332C 34.1219 6.40332 33.6024 6.64941 33.1694 7.1416C 32.7411 7.63379 32.5269 8.24674 32.5269 8.98047L 32.5269 13L 31.3921 13L 31.3921 5.50781L 32.3286 5.50781L 32.4585 6.89551L 32.5132 6.89551C 32.7912 6.40788 33.1261 6.0319 33.5181 5.76758C 33.91 5.50326 34.3407 5.37109 34.8101 5.37109ZM 41.7248 13L 41.7248 8.15332C 41.7248 7.54264 41.5858 7.08691 41.3078 6.78613C 41.0298 6.48535 40.5946 6.33496 40.0021 6.33496C 39.2183 6.33496 38.6441 6.54688 38.2795 6.9707C 37.9149 7.39453 37.7326 8.09408 37.7326 9.06934L 37.7326 13L 36.5978 13L 36.5978 5.50781L 37.5207 5.50781L 37.7053 6.5332L 37.76 6.5332C 37.9924 6.16406 38.3182 5.87923 38.7375 5.67871C 39.1568 5.47363 39.6239 5.37109 40.1389 5.37109C 41.0412 5.37109 41.7202 5.58984 42.176 6.02734C 42.6317 6.46029 42.8596 7.15527 42.8596 8.1123L 42.8596 13L 41.7248 13ZM 49.2958 13L 49.0702 11.9336L 49.0155 11.9336C 48.6418 12.403 48.2681 12.722 47.8944 12.8906C 47.5253 13.0547 47.0627 13.1367 46.5067 13.1367C 45.7639 13.1367 45.1806 12.9453 44.7567 12.5625C 44.3375 12.1797 44.1278 11.6351 44.1278 10.9287C 44.1278 9.41569 45.3378 8.62272 47.7577 8.5498L 49.0292 8.50879L 49.0292 8.04395C 49.0292 7.45605 48.9016 7.02311 48.6464 6.74512C 48.3957 6.46257 47.9924 6.32129 47.4364 6.32129C 46.8121 6.32129 46.1057 6.5127 45.3173 6.89551L 44.9686 6.02734C 45.3378 5.82682 45.7411 5.6696 46.1786 5.55566C 46.6207 5.44173 47.0627 5.38477 47.5048 5.38477C 48.398 5.38477 49.0588 5.58301 49.4872 5.97949C 49.9201 6.37598 50.1366 7.01172 50.1366 7.88672L 50.1366 13L 49.2958 13ZM 46.7323 12.2002C 47.4387 12.2002 47.9924 12.0065 48.3934 11.6191C 48.799 11.2318 49.0018 10.6895 49.0018 9.99219L 49.0018 9.31543L 47.8671 9.36328C 46.9647 9.39518 46.313 9.53646 45.912 9.78711C 45.5155 10.0332 45.3173 10.4183 45.3173 10.9424C 45.3173 11.3525 45.4403 11.6647 45.6864 11.8789C 45.9371 12.0931 46.2857 12.2002 46.7323 12.2002ZM 54.3922 12.2002C 54.5927 12.2002 54.7864 12.1865 54.9732 12.1592C 55.1601 12.1273 55.3082 12.0954 55.4176 12.0635L 55.4176 12.9316C 55.2945 12.9909 55.1122 13.0387 54.8707 13.0752C 54.6337 13.1162 54.4195 13.1367 54.2281 13.1367C 52.7789 13.1367 52.0543 12.3734 52.0543 10.8467L 52.0543 6.38965L 50.981 6.38965L 50.981 5.84277L 52.0543 5.37109L 52.5328 3.77148L 53.189 3.77148L 53.189 5.50781L 55.3629 5.50781L 55.3629 6.38965L 53.189 6.38965L 53.189 10.7988C 53.189 11.25 53.2961 11.5964 53.5103 11.8379C 53.7245 12.0794 54.0185 12.2002 54.3922 12.2002ZM 57.5471 13L 56.4124 13L 56.4124 5.50781L 57.5471 5.50781L 57.5471 13ZM 56.3167 3.47754C 56.3167 3.21777 56.3805 3.02865 56.5081 2.91016C 56.6357 2.78711 56.7952 2.72559 56.9866 2.72559C 57.1689 2.72559 57.3261 2.78711 57.4583 2.91016C 57.5904 3.0332 57.6565 3.22233 57.6565 3.47754C 57.6565 3.73275 57.5904 3.92415 57.4583 4.05176C 57.3261 4.1748 57.1689 4.23633 56.9866 4.23633C 56.7952 4.23633 56.6357 4.1748 56.5081 4.05176C 56.3805 3.92415 56.3167 3.73275 56.3167 3.47754ZM 65.9111 9.24707C 65.9111 10.4684 65.6035 11.4232 64.9882 12.1113C 64.373 12.7949 63.5231 13.1367 62.4384 13.1367C 61.7685 13.1367 61.1738 12.9795 60.6543 12.665C 60.1347 12.3506 59.7337 11.8994 59.4511 11.3115C 59.1686 10.7236 59.0273 10.0355 59.0273 9.24707C 59.0273 8.02572 59.3326 7.07552 59.9433 6.39648C 60.554 5.71289 61.4017 5.37109 62.4863 5.37109C 63.5345 5.37109 64.3662 5.71973 64.9814 6.41699C 65.6012 7.11426 65.9111 8.05762 65.9111 9.24707ZM 60.2031 9.24707C 60.2031 10.2041 60.3945 10.9333 60.7773 11.4346C 61.1601 11.9359 61.7229 12.1865 62.4658 12.1865C 63.2086 12.1865 63.7714 11.9382 64.1543 11.4414C 64.5416 10.9401 64.7353 10.2087 64.7353 9.24707C 64.7353 8.2946 64.5416 7.57227 64.1543 7.08008C 63.7714 6.58333 63.2041 6.33496 62.4521 6.33496C 61.7093 6.33496 61.1487 6.57878 60.7705 7.06641C 60.3922 7.55404 60.2031 8.28092 60.2031 9.24707ZM 72.5251 13L 72.5251 8.15332C 72.5251 7.54264 72.3861 7.08691 72.1081 6.78613C 71.8301 6.48535 71.3948 6.33496 70.8024 6.33496C 70.0185 6.33496 69.4443 6.54688 69.0797 6.9707C 68.7152 7.39453 68.5329 8.09408 68.5329 9.06934L 68.5329 13L 67.3981 13L 67.3981 5.50781L 68.321 5.50781L 68.5055 6.5332L 68.5602 6.5332C 68.7926 6.16406 69.1185 5.87923 69.5378 5.67871C 69.957 5.47363 70.4241 5.37109 70.9391 5.37109C 71.8415 5.37109 72.5205 5.58984 72.9762 6.02734C 73.432 6.46029 73.6598 7.15527 73.6598 8.1123L 73.6598 13L 72.5251 13ZM 80.096 13L 79.8705 11.9336L 79.8158 11.9336C 79.4421 12.403 79.0684 12.722 78.6947 12.8906C 78.3255 13.0547 77.863 13.1367 77.307 13.1367C 76.5641 13.1367 75.9808 12.9453 75.557 12.5625C 75.1377 12.1797 74.9281 11.6351 74.9281 10.9287C 74.9281 9.41569 76.138 8.62272 78.558 8.5498L 79.8294 8.50879L 79.8294 8.04395C 79.8294 7.45605 79.7018 7.02311 79.4466 6.74512C 79.196 6.46257 78.7927 6.32129 78.2367 6.32129C 77.6123 6.32129 76.9059 6.5127 76.1175 6.89551L 75.7689 6.02734C 76.138 5.82682 76.5414 5.6696 76.9789 5.55566C 77.4209 5.44173 77.863 5.38477 78.305 5.38477C 79.1983 5.38477 79.8591 5.58301 80.2874 5.97949C 80.7204 6.37598 80.9369 7.01172 80.9369 7.88672L 80.9369 13L 80.096 13ZM 77.5326 12.2002C 78.2389 12.2002 78.7927 12.0065 79.1937 11.6191C 79.5993 11.2318 79.8021 10.6895 79.8021 9.99219L 79.8021 9.31543L 78.6673 9.36328C 77.765 9.39518 77.1133 9.53646 76.7122 9.78711C 76.3158 10.0332 76.1175 10.4183 76.1175 10.9424C 76.1175 11.3525 76.2406 11.6647 76.4867 11.8789C 76.7373 12.0931 77.0859 12.2002 77.5326 12.2002ZM 83.9073 13L 82.7725 13L 82.7725 2.36328L 83.9073 2.36328L 83.9073 13ZM 92.1791 13L 91.017 13L 91.017 4.03809L 87.852 4.03809L 87.852 3.00586L 95.3442 3.00586L 95.3442 4.03809L 92.1791 4.03809L 92.1791 13ZM 105.021 7.98926C 105.021 9.58887 104.615 10.8467 103.804 11.7627C 102.997 12.6787 101.874 13.1367 100.434 13.1367C 98.9617 13.1367 97.8247 12.6878 97.0226 11.79C 96.225 10.8877 95.8263 9.61621 95.8263 7.97559C 95.8263 6.34863 96.2273 5.08854 97.0294 4.19531C 97.8315 3.29753 98.9708 2.84863 100.447 2.84863C 101.883 2.84863 103.004 3.30436 103.811 4.21582C 104.617 5.12728 105.021 6.38509 105.021 7.98926ZM 97.0567 7.98926C 97.0567 9.34277 97.3439 10.3704 97.9181 11.0723C 98.4969 11.7695 99.3354 12.1182 100.434 12.1182C 101.541 12.1182 102.377 11.7695 102.942 11.0723C 103.508 10.375 103.79 9.34733 103.79 7.98926C 103.79 6.64486 103.508 5.6263 102.942 4.93359C 102.382 4.23633 101.55 3.8877 100.447 3.8877C 99.34 3.8877 98.4969 4.23861 97.9181 4.94043C 97.3439 5.6377 97.0567 6.65397 97.0567 7.98926ZM 113.084 5.91797C 113.084 6.92969 112.737 7.70898 112.045 8.25586C 111.357 8.79818 110.37 9.06934 109.085 9.06934L 107.909 9.06934L 107.909 13L 106.747 13L 106.747 3.00586L 109.338 3.00586C 111.835 3.00586 113.084 3.97656 113.084 5.91797ZM 107.909 8.07129L 108.955 8.07129C 109.985 8.07129 110.73 7.90495 111.19 7.57227C 111.651 7.23958 111.881 6.70638 111.881 5.97266C 111.881 5.31185 111.664 4.81966 111.231 4.49609C 110.798 4.17253 110.124 4.01074 109.208 4.01074L 107.909 4.01074L 107.909 8.07129ZM 113.874 9.7666L 113.874 8.72754L 117.23 8.72754L 117.23 9.7666L 113.874 9.7666ZM 126.223 3.00586L 126.223 9.47266C 126.223 10.612 125.879 11.5075 125.191 12.1592C 124.502 12.8109 123.557 13.1367 122.354 13.1367C 121.151 13.1367 120.219 12.8086 119.558 12.1523C 118.902 11.4961 118.573 10.5938 118.573 9.44531L 118.573 3.00586L 119.736 3.00586L 119.736 9.52734C 119.736 10.3613 119.963 11.0016 120.419 11.4482C 120.875 11.8949 121.545 12.1182 122.429 12.1182C 123.272 12.1182 123.921 11.8949 124.377 11.4482C 124.833 10.9971 125.061 10.3522 125.061 9.51367L 125.061 3.00586L 126.223 3.00586ZM 134.703 5.91797C 134.703 6.92969 134.357 7.70898 133.664 8.25586C 132.976 8.79818 131.989 9.06934 130.704 9.06934L 129.528 9.06934L 129.528 13L 128.366 13L 128.366 3.00586L 130.957 3.00586C 133.454 3.00586 134.703 3.97656 134.703 5.91797ZM 129.528 8.07129L 130.574 8.07129C 131.604 8.07129 132.349 7.90495 132.809 7.57227C 133.27 7.23958 133.5 6.70638 133.5 5.97266C 133.5 5.31185 133.283 4.81966 132.85 4.49609C 132.418 4.17253 131.743 4.01074 130.827 4.01074L 129.528 4.01074L 129.528 8.07129ZM 140.955 10.9561C 140.955 11.6533 140.695 12.1911 140.175 12.5693C 139.656 12.9476 138.927 13.1367 137.988 13.1367C 136.994 13.1367 136.22 12.9795 135.664 12.665L 135.664 11.6123C 136.024 11.7946 136.409 11.9382 136.819 12.043C 137.234 12.1478 137.632 12.2002 138.015 12.2002C 138.608 12.2002 139.063 12.1068 139.382 11.9199C 139.701 11.7285 139.861 11.4391 139.861 11.0518C 139.861 10.7601 139.733 10.5117 139.478 10.3066C 139.227 10.097 138.735 9.85091 138.002 9.56836C 137.304 9.30859 136.808 9.08301 136.511 8.8916C 136.22 8.69564 136.001 8.47461 135.855 8.22852C 135.714 7.98242 135.643 7.68848 135.643 7.34668C 135.643 6.736 135.891 6.25521 136.388 5.9043C 136.885 5.54883 137.566 5.37109 138.432 5.37109C 139.239 5.37109 140.027 5.53516 140.797 5.86328L 140.394 6.78613C 139.642 6.47624 138.961 6.32129 138.35 6.32129C 137.812 6.32129 137.407 6.4056 137.133 6.57422C 136.86 6.74284 136.723 6.97526 136.723 7.27148C 136.723 7.47201 136.773 7.6429 136.874 7.78418C 136.978 7.92546 137.145 8.0599 137.373 8.1875C 137.6 8.3151 138.038 8.49967 138.685 8.74121C 139.574 9.06478 140.173 9.39062 140.483 9.71875C 140.797 10.0469 140.955 10.4593 140.955 10.9561Z"/>
<path id="path10_stroke" d="M 66 133C 103.003 133 133 103.003 133 66L 131 66C 131 101.899 101.899 131 66 131L 66 133ZM 133 66C 133 28.9969 103.003 -1 66 -1L 66 1C 101.899 1 131 30.1015 131 66L 133 66ZM 66 -1C 28.9969 -1 -1 28.9969 -1 66L 1 66C 1 30.1015 30.1015 1 66 1L 66 -1ZM -1 66C -1 103.003 28.9969 133 66 133L 66 131C 30.1015 131 1 101.899 1 66L -1 66Z"/>
<path id="path11_fill" fill-rule="evenodd" d="M 24.8542 0.17334C 23.9388 0.0588379 23.0059 0 22.059 0C 9.87616 0 0 9.7605 0 21.8008C 0 31.437 6.32611 39.6133 15.0978 42.4939L 20.8004 26.4294L 6.67188 27.6677L 24.8542 0.17334ZM 17.0979 43.0481L 38.2296 16.1416L 21.4863 18.1343L 26.9286 0.532959C 36.7684 2.72412 44.1181 11.4141 44.1181 21.8008C 44.1181 33.8411 34.2419 43.6016 22.059 43.6016C 20.3531 43.6016 18.6926 43.4104 17.0979 43.0481Z"/>
<path id="path12_fill" fill-rule="evenodd" d="M 44.1489 38.8345C 43.2979 38.8345 42.5 38.9937 41.7553 39.3125L 33.4575 31.0781C 33.7766 30.6001 34.0425 30.0688 34.3085 29.4844L 39.0425 29.1655C 40.1064 30.4937 41.7553 31.397 43.617 31.397C 46.8617 31.397 49.4681 28.7937 49.4681 25.5532C 49.4681 22.3125 46.8617 19.7095 43.617 19.7095C 40.5851 19.7095 38.0851 22.0469 37.8192 25.022L 35.1064 25.1812C 34.9468 20.8782 32.1277 17.2656 28.1915 15.9375L 27.8723 10.9438C 29.6277 9.93433 30.8511 8.02197 30.8511 5.84375C 30.8511 2.60303 28.2447 0 25 0C 21.7553 0 19.1489 2.60303 19.1489 5.84375C 19.1489 8.6062 21.0638 10.8906 23.617 11.5281L 23.883 15.4595C 22.3936 15.6187 21.0106 16.0969 19.7872 16.8406L 11.1702 8.2876C 11.4894 7.5437 11.7021 6.74683 11.7021 5.89697C 11.7021 2.65625 9.09576 0.0532227 5.85107 0.0532227C 2.60638 0.0532227 0 2.65625 0 5.89697C 0 9.13745 2.60638 11.7407 5.85107 11.7407C 6.70215 11.7407 7.44684 11.5813 8.19147 11.2625L 16.7021 19.8157C 15.5851 21.4624 14.8936 23.4282 14.8936 25.5532C 14.8936 27.5188 15.4787 29.3782 16.4894 30.9719L 8.13831 39.3125C 7.44684 38.9937 6.64893 38.8345 5.85107 38.8345C 2.60638 38.8345 0 41.4375 0 44.6782C 0 47.9187 2.60638 50.522 5.85107 50.522C 9.09576 50.522 11.7021 47.9187 11.7021 44.6782C 11.7021 43.8281 11.4894 42.978 11.1702 42.2344L 19.4681 33.9468C 21.0638 35.0093 22.9787 35.5938 25 35.5938C 26.9681 35.5938 28.8298 35.0093 30.4255 34L 38.7766 42.2876C 38.4575 42.978 38.2979 43.7749 38.2979 44.625C 38.2979 47.8657 40.9042 50.4688 44.1489 50.4688C 47.3936 50.4688 50 47.8657 50 44.625C 50 41.3843 47.3936 38.8345 44.1489 38.8345ZM 43.6171 23.9595C 44.5213 23.9595 45.2128 24.6501 45.2128 25.5532C 45.2128 26.4563 44.5213 27.147 43.6171 27.147C 42.7128 27.147 42.0213 26.4563 42.0213 25.5532C 42.0213 24.6501 42.7128 23.9595 43.6171 23.9595ZM 26.5957 5.89697C 26.5957 4.9939 25.9042 4.30322 25 4.30322C 24.0957 4.30322 23.4042 4.9939 23.4042 5.89697C 23.4042 6.80005 24.0957 7.49072 25 7.49072C 25.9042 7.49072 26.5957 6.80005 26.5957 5.89697ZM 4.25531 5.89697C 4.25531 4.9939 4.94678 4.30322 5.85107 4.30322C 6.75531 4.30322 7.44678 4.9939 7.44678 5.89697C 7.44678 6.80005 6.75531 7.49072 5.85107 7.49072C 4.94678 7.49072 4.25531 6.80005 4.25531 5.89697ZM 4.25531 44.6782C 4.25531 45.5813 4.94678 46.272 5.85107 46.272C 6.75531 46.272 7.44678 45.5813 7.44678 44.6782C 7.44678 43.7751 6.75531 43.0845 5.85107 43.0845C 4.94678 43.0845 4.25531 43.7751 4.25531 44.6782ZM 19.1489 25.5532C 19.1489 22.3125 21.7553 19.7095 25 19.7095C 28.2447 19.7095 30.8511 22.3125 30.8511 25.5532C 30.8511 28.7939 28.2447 31.397 25 31.397C 21.7553 31.397 19.1489 28.7939 19.1489 25.5532ZM 42.5532 44.6782C 42.5532 45.5813 43.2447 46.272 44.149 46.272C 45.0532 46.272 45.7447 45.5813 45.7447 44.6782C 45.7447 43.7751 45.0532 43.0845 44.149 43.0845C 43.2447 43.0845 42.5532 43.7751 42.5532 44.6782Z"/>
<path id="path13_fill" fill-rule="evenodd" d="M 0.700012 0L 27.825 0C 28.2625 0 28.525 0.262451 28.525 0.699951L 28.525 21.7C 28.525 22.1375 28.175 22.3999 27.825 22.3999L 0.700012 22.3999C 0.262512 22.3999 0 22.05 0 21.7L 0 0.699951C 0 0.262451 0.349976 0 0.700012 0ZM 19.3375 18.2002C 19.775 18.9001 20.5625 19.425 21.525 19.425C 22.925 19.425 24.0625 18.2876 24.0625 16.8877C 24.0625 15.4875 22.925 14.3501 21.525 14.3501C 20.5625 14.3501 19.775 14.7876 19.3375 15.5752C 18.9 14.875 18.1125 14.3501 17.15 14.3501C 15.75 14.3501 14.6125 15.4875 14.6125 16.8877C 14.6125 18.2876 15.75 19.425 17.15 19.425C 18.1125 19.425 18.9 18.9875 19.3375 18.2002ZM 24.0625 10.5L 16.5375 10.5C 16.0125 10.5 15.6625 10.0625 15.6625 9.625C 15.6625 9.1875 16.1 8.75 16.5375 8.75L 24.0625 8.75C 24.5875 8.75 24.9375 9.1875 24.9375 9.625C 24.9375 10.0625 24.5875 10.5 24.0625 10.5ZM 16.5375 4.8999L 24.0625 4.8999C 24.5875 4.8999 24.9375 4.4624 24.9375 4.0249C 24.9375 3.5874 24.5875 3.1499 24.0625 3.1499L 16.5375 3.1499C 16.1 3.1499 15.6625 3.5 15.6625 4.0249C 15.6625 4.4624 16.0125 4.8999 16.5375 4.8999Z"/>
<path id="path14_fill" fill-rule="evenodd" d="M 3.76251 33.1626L 19.775 33.1626L 19.8625 33.1626L 19.8625 31.675L 23.625 31.675L 23.625 40.425C 23.625 40.8625 23.275 41.125 22.925 41.125L 0.700012 41.125C 0.262512 41.125 0 40.7749 0 40.425L 0 0.699951C 0 0.262451 0.349976 0 0.700012 0L 22.8375 0C 23.275 0 23.5375 0.350098 23.5375 0.699951L 23.5375 5.6875L 19.775 5.6875L 19.775 4.19995L 3.76251 4.19995L 3.76251 33.1626ZM 10.675 38.1499L 12.8625 38.1499C 13.3875 38.1499 13.825 37.7998 13.7375 37.2749C 13.7375 36.8374 13.3875 36.3999 12.8625 36.3999L 10.675 36.3999C 10.2375 36.3999 9.79999 36.75 9.79999 37.2749C 9.79999 37.7124 10.15 38.1499 10.675 38.1499Z"/>
<path id="path15_fill" d="M 35.4594 7.18444C 31.7789 2.79778 26.265 0 20.0767 0C 8.97944 0 0 8.94833 0 19.9911L 7.99722 19.9911C 7.99722 13.3461 13.4222 7.94056 20.1006 7.94056C 24.0956 7.94056 27.6378 9.88556 29.8439 12.8667L 25.1417 17.36L 39.9806 17.3533L 39.9806 2.58389L 35.4594 7.18444Z"/>
<path id="path16_fill" d="M 19.8783 12.0494C 15.8822 12.0494 12.3422 10.105 10.1344 7.12333L 14.8367 2.63111L 0 2.63778L 0 17.4067L 4.51889 12.8061C 8.19944 17.1928 13.7139 19.9922 19.9022 19.9922C 31.0011 19.9922 39.9806 11.0422 39.9806 0L 31.9811 0C 31.9811 6.64333 26.5561 12.0494 19.8783 12.0494Z"/>
<path id="path17_fill" fill-rule="evenodd" d="M 6.52039 36.9846C 8.43073 37.9199 10.3137 38.5894 11.9679 38.7134C 9.88013 37.4946 7.84259 35.7043 6.34052 33.8262L 13.5244 33.8262C 14.0265 35.3652 14.6884 37.0269 15.3615 38.5667C 16.2304 38.5715 17.0432 38.5251 17.796 38.2578C 17.1881 36.8623 16.521 35.2708 16.0435 33.8755L 26.7417 33.8755C 28.8987 32.0786 30.2246 29.8616 31.7164 27.198C 31.8579 25.7708 31.9097 24.4368 31.9377 22.8945C 31.7815 22.7761 31.6448 22.6702 31.5103 22.5659C 31.1212 22.2642 30.7506 21.9768 29.9792 21.4431L 31.7182 20.7771C 32.0167 18.6855 31.214 14.0747 30.6911 11.9622L 38.5984 11.9622C 39.5869 13.696 40.2683 15.1555 40.6887 17.1692L 42.6734 16.4136C 41.8155 12.5215 39.9332 9.31592 36.9268 6.30981C 28.5137 -2.10327 14.7036 -2.10327 6.29077 6.30981C -2.32751 14.9277 -1.93725 28.7598 6.52039 36.9846ZM 27.2889 2.92285C 31.113 4.08325 34.4414 6.38354 36.8771 9.42896L 29.9731 9.42896C 29.2807 7.26025 28.3889 5.0918 27.2889 2.92285ZM 21.6085 2.08423C 20.5673 2.08423 19.5454 2.16602 18.5481 2.32275C 17.221 4.69165 16.1804 7.06006 15.4072 9.42896L 27.8103 9.42896C 27.0365 7.06006 25.9966 4.69189 24.6691 2.32275C 23.6719 2.16553 22.6499 2.08423 21.6085 2.08423ZM 6.34021 9.42896C 8.77619 6.38379 12.1043 4.08325 15.9283 2.92285C 14.8283 5.0918 13.9362 7.26025 13.2442 9.42896L 6.34021 9.42896ZM 29.563 20.3606C 29.5597 17.5613 29.2292 14.762 28.5368 11.9622L 14.6801 11.9622C 13.9877 14.762 13.6572 17.5613 13.6542 20.3606L 29.563 20.3606ZM 2.10694 20.3611C 2.30176 17.3201 3.1908 14.4678 4.61914 11.9626L 12.5264 11.9626C 11.8334 14.7625 11.4697 17.5618 11.4185 20.3611L 2.10694 20.3611ZM 27.9896 31.2927C 28.7798 28.4937 29.2871 25.6941 29.478 22.8943L 13.739 22.8943C 13.9301 25.6941 14.4371 28.4939 15.2274 31.2927L 27.9896 31.2927ZM 4.61914 31.2927C 3.19049 28.7876 2.30146 25.9355 2.10694 22.8943L 11.4575 22.8943C 11.5944 25.6941 12.0386 28.4934 12.7767 31.2927L 4.61914 31.2927ZM 49.9023 33.3755L 49.3884 15.3052L 33.5518 21.9299C 34.2616 22.4211 34.6031 22.6858 34.9611 22.9634C 35.2903 23.2188 35.6334 23.4846 36.2899 23.9475C 29.4975 40.9636 12.4825 45.0442 3.36335 36.4036C 12.135 49.1506 35.8036 47.8638 45.3655 30.1792C 46.2439 30.7788 46.8475 31.2112 47.5277 31.6982C 48.1594 32.1506 48.8571 32.6504 49.9023 33.3755Z"/>
<path id="path18_fill" fill-rule="evenodd" d="M 18 9C 18 13.9629 13.9624 18 9 18C 4.0376 18 0 13.9629 0 9C 0 4.03711 4.0376 0 9 0C 13.9624 0 18 4.03711 18 9ZM 16 9C 16 5.14062 12.8599 2 9 2C 5.14014 2 2 5.14062 2 9C 2 12.8594 5.14014 16 9 16C 12.8599 16 16 12.8594 16 9Z"/>
<path id="path19_fill" d="M 0 0L 0 6.23633L 6.23584 3.11816L 0 0Z"/>
<path id="path20_fill" fill-rule="evenodd" d="M 0 47.9502L 0 0L 36 0L 36 40.6001C 36 44.6501 32.71 47.9502 28.65 47.9502L 0 47.9502ZM 5 37.5C 5 40.53 7.47003 43 10.5 43C 13.54 43 16 40.53 16 37.5C 16 34.4702 13.54 32 10.5 32C 7.47003 32 5 34.4702 5 37.5ZM 29.0042 39.0012L 26.0042 39.0012L 26.0042 42.0012L 24.0042 42.0012L 24.0042 39.0012L 21.0042 39.0012L 21.0042 37.0012L 24.0042 37.0012L 24.0042 34.0012L 26.0042 34.0012L 26.0042 37.0012L 29.0042 37.0012L 29.0042 39.0012ZM 5 30L 31 30L 31 4L 5 4L 5 30Z"/>
<path id="path21_fill" d="M 0.914634 1.40921C 1.64634 0.555556 2.7439 0.00677507 3.84146 0.00677507C 17.2561 0.00677507 30.7317 0.00677507 44.1463 0.00677507C 44.8781 0.00677507 45.6707 -0.0542005 46.4024 0.189702C 47.9268 0.677507 49.0244 2.14092 49.0854 3.72629C 49.0854 5.00678 49.0854 6.28726 49.0854 7.56775C 32.7439 7.56775 16.3415 7.56775 0 7.56775C 0 6.34824 0 5.12873 0 3.90921C 2.16629e-15 2.99458 0.304878 2.07995 0.914634 1.40921Z"/>
<path id="path22_fill" fill-rule="evenodd" d="M 49.0854 0L 0 0L 0 16.5854C 0 17.7439 0.548767 18.8416 1.40247 19.5732C 2.07318 20.1829 2.98779 20.4878 3.90247 20.4878L 45.2439 20.4878C 46.2195 20.4268 47.1951 20.061 47.9268 19.3293C 48.5975 18.6584 49.0244 17.7439 49.0854 16.7683L 49.0854 15.3049L 49.0854 0ZM 29.6342 7.2561C 29.8171 5.73169 30.7927 4.3291 32.1951 3.65845C 32.9879 3.23169 33.9025 3.04858 34.8781 3.17065C 35.9756 3.29248 37.0732 3.84131 37.8658 4.63403C 39.1464 3.41455 41.0366 2.98779 42.6219 3.53638C 43.4147 3.84131 44.2073 4.3291 44.7561 5C 45.3659 5.79248 45.7927 6.8291 45.7927 7.86572C 45.7927 8.41455 45.7927 8.96338 45.6098 9.51221C 45.3658 10.3657 44.939 11.2195 44.3903 11.9512C 43.2927 13.3535 41.8293 14.4512 40.3049 15.3047C 39.3903 15.7925 38.4756 16.2195 37.5 16.5852C 36.6464 16.2803 35.9147 15.8535 35.1219 15.4268C 34.1464 14.8779 33.2927 14.2683 32.5 13.5364C 31.5854 12.6829 30.7318 11.7073 30.1829 10.5486C 30 10.0608 29.8171 9.573 29.6951 9.08521C 29.5732 8.47559 29.5732 7.86572 29.6342 7.2561ZM 5.36584 6.21948C 5.06097 6.21948 4.69513 6.46338 4.57318 6.76831C 4.39026 7.07324 4.45123 7.43896 4.63416 7.7439C 4.81708 7.98779 5.12195 8.17065 5.42682 8.17065L 17.2561 8.17065C 17.6829 8.17065 18.1097 7.80493 18.1707 7.37793C 18.2317 6.95117 17.9878 6.52441 17.6219 6.34155C 17.3781 6.21948 17.1342 6.21948 16.8903 6.21948L 5.36584 6.21948ZM 4.51221 11.9512C 4.51221 11.4634 4.93903 11.1587 5.36584 11.0977C 7.80487 11.0671 10.2744 11.0671 12.7439 11.0671C 15.2134 11.0671 17.6829 11.0671 20.1219 11.0366C 20.4878 11.0366 20.7927 11.1587 20.9756 11.4026C 21.2195 11.7073 21.2805 12.1343 21.0976 12.5C 20.9147 12.866 20.5488 13.0488 20.1829 13.0488L 5.79272 13.0488C 5.73175 13.0488 5.67078 13.0527 5.6098 13.0566C 5.42682 13.0681 5.2439 13.0793 5.06097 12.9878C 4.69513 12.8049 4.45123 12.3782 4.51221 11.9512Z"/>
<path id="path23_fill" d="M 1.21951 0.49936C 1.76829 0.133506 2.37805 -0.0494207 3.04878 0.0115549C 3.90244 0.0725305 4.69512 0.49936 5.12195 1.17009C 5.30488 1.41399 5.36585 1.6579 5.60976 1.84082C 5.91463 2.08473 6.46341 2.1457 6.76829 1.84082C 7.0122 1.6579 7.13415 1.35302 7.31707 1.17009C 7.80488 0.560335 8.47561 0.194482 9.26829 0.0725305C 9.81707 0.0115549 10.4268 0.133506 10.9146 0.438384C 11.5244 0.743262 12.0122 1.35302 12.1951 2.02375C 12.3171 2.45058 12.3171 2.87741 12.2561 3.30424C 12.2561 3.73107 12.0732 4.1579 11.8902 4.58473C 11.5244 5.37741 10.9756 6.04814 10.3659 6.59692C 9.08537 7.81643 7.56098 8.67009 5.91463 9.34082C 5.06098 8.91399 4.20732 8.48716 3.41463 7.87741C 2.5 7.26765 1.70732 6.53595 1.03659 5.62131C 0.54878 5.01156 0.243902 4.27985 0.0609756 3.48716C 0 3.12131 0 2.69448 0 2.32863C 0.243902 1.59692 0.670732 0.926189 1.21951 0.49936Z"/>
</defs>
</svg>
