<svg width="20" height="17" viewBox="0 0 20 17" version="1.1" xmlns="http://www.w3.org/2000/svg" xmlns:xlink="http://www.w3.org/1999/xlink">
<title>1494916443_Twitter_Color</title>
<desc>Created using Figma</desc>
<g id="Canvas" transform="translate(-567 -2868)">
<g id="1494916443_Twitter_Color" opacity="0.516531">
<g id="XMLID_22_">
<use xlink:href="#path0_fill" transform="translate(567 2868)" fill="#818692"/>
</g>
</g>
</g>
<defs>
<path id="path0_fill" d="M 6.28805 16.1905C 13.8375 16.1905 17.9667 9.96033 17.9667 4.56128C 17.9667 4.38631 17.9667 4.21134 17.9542 4.03012C 18.7575 3.44897 19.4478 2.7366 20 1.91175C 19.2532 2.24294 18.4562 2.46165 17.6404 2.55538C 18.5002 2.04297 19.1403 1.24311 19.4478 0.293281C 18.6445 0.768198 17.7596 1.10564 16.8434 1.28686C 15.2871 -0.356604 12.689 -0.43784 11.0386 1.11189C 9.97176 2.11171 9.51992 3.59895 9.85253 5.01745C 6.55162 4.85498 3.47662 3.299 1.39316 0.749451C 0.301224 2.61787 0.859743 5.00495 2.66081 6.20474C 2.00816 6.18599 1.36806 6.01102 0.796988 5.69233C 0.796988 5.71108 0.796988 5.72357 0.796988 5.74232C 0.796988 7.68573 2.1776 9.36043 4.09162 9.74786C 3.48917 9.91033 2.85535 9.93533 2.24035 9.8166C 2.78004 11.4788 4.31754 12.6224 6.07468 12.6536C 4.61876 13.7909 2.82397 14.4095 0.978977 14.4095C 0.652651 14.4095 0.326326 14.3908 0 14.3533C 1.8701 15.5531 4.05397 16.1905 6.28805 16.1905"/>
</defs>
</svg>
