<svg width="50" height="51" viewBox="0 0 50 51" version="1.1" xmlns="http://www.w3.org/2000/svg" xmlns:xlink="http://www.w3.org/1999/xlink">
<title>noun_1365246_cc</title>
<desc>Created using Figma</desc>
<g id="Canvas" transform="translate(-917 -2167)">
<g id="noun_1365246_cc">
<g id="Shape">
<use xlink:href="#path0_fill" transform="translate(917 2167.21)" fill="#96BD22"/>
</g>
</g>
</g>
<defs>
<path id="path0_fill" fill-rule="evenodd" d="M 44.1489 38.8345C 43.2979 38.8345 42.5 38.9937 41.7553 39.3125L 33.4575 31.0781C 33.7766 30.6001 34.0425 30.0688 34.3085 29.4844L 39.0425 29.1655C 40.1064 30.4937 41.7553 31.397 43.617 31.397C 46.8617 31.397 49.4681 28.7937 49.4681 25.5532C 49.4681 22.3125 46.8617 19.7095 43.617 19.7095C 40.5851 19.7095 38.0851 22.0469 37.8192 25.022L 35.1064 25.1812C 34.9468 20.8782 32.1277 17.2656 28.1915 15.9375L 27.8723 10.9438C 29.6277 9.93433 30.8511 8.02197 30.8511 5.84375C 30.8511 2.60303 28.2447 0 25 0C 21.7553 0 19.1489 2.60303 19.1489 5.84375C 19.1489 8.6062 21.0638 10.8906 23.617 11.5281L 23.883 15.4595C 22.3936 15.6187 21.0106 16.0969 19.7872 16.8406L 11.1702 8.2876C 11.4894 7.5437 11.7021 6.74683 11.7021 5.89697C 11.7021 2.65625 9.09576 0.0532227 5.85107 0.0532227C 2.60638 0.0532227 0 2.65625 0 5.89697C 0 9.13745 2.60638 11.7407 5.85107 11.7407C 6.70215 11.7407 7.44684 11.5813 8.19147 11.2625L 16.7021 19.8157C 15.5851 21.4624 14.8936 23.4282 14.8936 25.5532C 14.8936 27.5188 15.4787 29.3782 16.4894 30.9719L 8.13831 39.3125C 7.44684 38.9937 6.64893 38.8345 5.85107 38.8345C 2.60638 38.8345 0 41.4375 0 44.6782C 0 47.9187 2.60638 50.522 5.85107 50.522C 9.09576 50.522 11.7021 47.9187 11.7021 44.6782C 11.7021 43.8281 11.4894 42.978 11.1702 42.2344L 19.4681 33.9468C 21.0638 35.0093 22.9787 35.5938 25 35.5938C 26.9681 35.5938 28.8298 35.0093 30.4255 34L 38.7766 42.2876C 38.4575 42.978 38.2979 43.7749 38.2979 44.625C 38.2979 47.8657 40.9042 50.4688 44.1489 50.4688C 47.3936 50.4688 50 47.8657 50 44.625C 50 41.3843 47.3936 38.8345 44.1489 38.8345ZM 43.6171 23.9595C 44.5213 23.9595 45.2128 24.6501 45.2128 25.5532C 45.2128 26.4563 44.5213 27.147 43.6171 27.147C 42.7128 27.147 42.0213 26.4563 42.0213 25.5532C 42.0213 24.6501 42.7128 23.9595 43.6171 23.9595ZM 26.5957 5.89697C 26.5957 4.9939 25.9042 4.30322 25 4.30322C 24.0957 4.30322 23.4042 4.9939 23.4042 5.89697C 23.4042 6.80005 24.0957 7.49072 25 7.49072C 25.9042 7.49072 26.5957 6.80005 26.5957 5.89697ZM 4.25531 5.89697C 4.25531 4.9939 4.94678 4.30322 5.85107 4.30322C 6.75531 4.30322 7.44678 4.9939 7.44678 5.89697C 7.44678 6.80005 6.75531 7.49072 5.85107 7.49072C 4.94678 7.49072 4.25531 6.80005 4.25531 5.89697ZM 4.25531 44.6782C 4.25531 45.5813 4.94678 46.272 5.85107 46.272C 6.75531 46.272 7.44678 45.5813 7.44678 44.6782C 7.44678 43.7751 6.75531 43.0845 5.85107 43.0845C 4.94678 43.0845 4.25531 43.7751 4.25531 44.6782ZM 19.1489 25.5532C 19.1489 22.3125 21.7553 19.7095 25 19.7095C 28.2447 19.7095 30.8511 22.3125 30.8511 25.5532C 30.8511 28.7939 28.2447 31.397 25 31.397C 21.7553 31.397 19.1489 28.7939 19.1489 25.5532ZM 42.5532 44.6782C 42.5532 45.5813 43.2447 46.272 44.149 46.272C 45.0532 46.272 45.7447 45.5813 45.7447 44.6782C 45.7447 43.7751 45.0532 43.0845 44.149 43.0845C 43.2447 43.0845 42.5532 43.7751 42.5532 44.6782Z"/>
</defs>
</svg>
