<svg width="36" height="48" viewBox="0 0 36 48" version="1.1" xmlns="http://www.w3.org/2000/svg" xmlns:xlink="http://www.w3.org/1999/xlink">
<title>noun_1139495_cc</title>
<desc>Created using Figma</desc>
<g id="Canvas" transform="translate(-518 -2171)">
<g id="noun_1139495_cc">
<g id="Group">
<g id="Shape">
<use xlink:href="#path0_fill" transform="translate(527.004 2179.03)" fill="#96BD22"/>
</g>
<g id="Shape">
<use xlink:href="#path1_fill" transform="translate(534.004 2184.91)" fill="#96BD22"/>
</g>
<g id="Shape">
<use xlink:href="#path2_fill" transform="translate(518 2171.02)" fill="#96BD22"/>
</g>
</g>
</g>
</g>
<defs>
<path id="path0_fill" fill-rule="evenodd" d="M 18 9C 18 13.9629 13.9624 18 9 18C 4.0376 18 0 13.9629 0 9C 0 4.03711 4.0376 0 9 0C 13.9624 0 18 4.03711 18 9ZM 16 9C 16 5.14062 12.8599 2 9 2C 5.14014 2 2 5.14062 2 9C 2 12.8594 5.14014 16 9 16C 12.8599 16 16 12.8594 16 9Z"/>
<path id="path1_fill" d="M 0 0L 0 6.23633L 6.23584 3.11816L 0 0Z"/>
<path id="path2_fill" fill-rule="evenodd" d="M 0 47.9502L 0 0L 36 0L 36 40.6001C 36 44.6501 32.71 47.9502 28.65 47.9502L 0 47.9502ZM 5 37.5C 5 40.53 7.47003 43 10.5 43C 13.54 43 16 40.53 16 37.5C 16 34.4702 13.54 32 10.5 32C 7.47003 32 5 34.4702 5 37.5ZM 29.0042 39.0012L 26.0042 39.0012L 26.0042 42.0012L 24.0042 42.0012L 24.0042 39.0012L 21.0042 39.0012L 21.0042 37.0012L 24.0042 37.0012L 24.0042 34.0012L 26.0042 34.0012L 26.0042 37.0012L 29.0042 37.0012L 29.0042 39.0012ZM 5 30L 31 30L 31 4L 5 4L 5 30Z"/>
</defs>
</svg>
