<svg width="50" height="35" viewBox="0 0 50 35" version="1.1" xmlns="http://www.w3.org/2000/svg" xmlns:xlink="http://www.w3.org/1999/xlink">
<title>noun_194918_cc</title>
<desc>Created using Figma</desc>
<g id="Canvas" transform="translate(-709 -2054)">
<g id="noun_194918_cc">
<g id="Group">
<g id="Shape">
<use xlink:href="#path0_fill" transform="translate(709.488 2054.6)" fill="#96BD22"/>
</g>
<g id="Shape">
<use xlink:href="#path1_fill" transform="translate(709.488 2068.27)" fill="#96BD22"/>
</g>
<g id="Shape">
<use xlink:href="#path2_fill" transform="translate(740.951 2073.38)" fill="#96BD22"/>
</g>
</g>
</g>
</g>
<defs>
<path id="path0_fill" d="M 0.914634 1.40921C 1.64634 0.555556 2.7439 0.00677507 3.84146 0.00677507C 17.2561 0.00677507 30.7317 0.00677507 44.1463 0.00677507C 44.8781 0.00677507 45.6707 -0.0542005 46.4024 0.189702C 47.9268 0.677507 49.0244 2.14092 49.0854 3.72629C 49.0854 5.00677 49.0854 6.28726 49.0854 7.56775C 32.7439 7.56775 16.3415 7.56775 0 7.56775C 0 6.34824 0 5.12873 0 3.90921C 2.16629e-15 2.99458 0.304878 2.07995 0.914634 1.40921Z"/>
<path id="path1_fill" fill-rule="evenodd" d="M 49.0854 0L 0 0L 0 16.5854C 0 17.7439 0.548767 18.8416 1.40247 19.5732C 2.07318 20.1829 2.98779 20.4878 3.90247 20.4878L 45.2439 20.4878C 46.2195 20.4268 47.1951 20.061 47.9268 19.3293C 48.5975 18.6584 49.0244 17.7439 49.0854 16.7683L 49.0854 15.3049L 49.0854 0ZM 29.6342 7.2561C 29.8171 5.73169 30.7927 4.3291 32.1951 3.65845C 32.9879 3.23169 33.9025 3.04858 34.8781 3.17065C 35.9756 3.29248 37.0732 3.84131 37.8658 4.63403C 39.1464 3.41455 41.0366 2.98779 42.6219 3.53638C 43.4147 3.84131 44.2073 4.3291 44.7561 5C 45.3659 5.79248 45.7927 6.8291 45.7927 7.86572C 45.7927 8.41455 45.7927 8.96338 45.6098 9.51221C 45.3658 10.3657 44.939 11.2195 44.3903 11.9512C 43.2927 13.3535 41.8293 14.4512 40.3049 15.3047C 39.3903 15.7925 38.4756 16.2195 37.5 16.5852C 36.6464 16.2803 35.9147 15.8535 35.1219 15.4268C 34.1464 14.8779 33.2927 14.2683 32.5 13.5364C 31.5854 12.6829 30.7318 11.7073 30.1829 10.5486C 30 10.0608 29.8171 9.573 29.6951 9.08521C 29.5732 8.47559 29.5732 7.86572 29.6342 7.2561ZM 5.36584 6.21948C 5.06097 6.21948 4.69513 6.46338 4.57318 6.76831C 4.39026 7.07324 4.45123 7.43896 4.63416 7.7439C 4.81708 7.98779 5.12195 8.17065 5.42682 8.17065L 17.2561 8.17065C 17.6829 8.17065 18.1097 7.80493 18.1707 7.37793C 18.2317 6.95117 17.9878 6.52441 17.6219 6.34155C 17.3781 6.21948 17.1342 6.21948 16.8903 6.21948L 5.36584 6.21948ZM 4.51221 11.9512C 4.51221 11.4634 4.93903 11.1587 5.36584 11.0977C 7.80487 11.0671 10.2744 11.0671 12.7439 11.0671C 15.2134 11.0671 17.6829 11.0671 20.1219 11.0366C 20.4878 11.0366 20.7927 11.1587 20.9756 11.4026C 21.2195 11.7073 21.2805 12.1343 21.0976 12.5C 20.9147 12.866 20.5488 13.0488 20.1829 13.0488L 5.79272 13.0488C 5.73175 13.0488 5.67078 13.0527 5.6098 13.0566C 5.42682 13.0681 5.2439 13.0793 5.06097 12.9878C 4.69513 12.8049 4.45123 12.3782 4.51221 11.9512Z"/>
<path id="path2_fill" d="M 1.21951 0.49936C 1.76829 0.133506 2.37805 -0.0494207 3.04878 0.0115549C 3.90244 0.0725305 4.69512 0.49936 5.12195 1.17009C 5.30488 1.41399 5.36585 1.6579 5.60976 1.84082C 5.91463 2.08473 6.46341 2.1457 6.76829 1.84082C 7.0122 1.6579 7.13415 1.35302 7.31707 1.17009C 7.80488 0.560335 8.47561 0.194482 9.26829 0.0725305C 9.81707 0.0115549 10.4268 0.133506 10.9146 0.438384C 11.5244 0.743262 12.0122 1.35302 12.1951 2.02375C 12.3171 2.45058 12.3171 2.87741 12.2561 3.30424C 12.2561 3.73107 12.0732 4.1579 11.8902 4.58473C 11.5244 5.37741 10.9756 6.04814 10.3659 6.59692C 9.08537 7.81643 7.56098 8.67009 5.91463 9.34082C 5.06098 8.91399 4.20732 8.48716 3.41463 7.87741C 2.5 7.26765 1.70732 6.53595 1.03659 5.62131C 0.54878 5.01156 0.243902 4.27985 0.0609756 3.48716C 0 3.12131 0 2.69448 0 2.32863C 0.243902 1.59692 0.670732 0.926189 1.21951 0.49936Z"/>
</defs>
</svg>
