<svg width="33" height="43" xmlns="http://www.w3.org/2000/svg" xmlns:xlink="http://www.w3.org/1999/xlink"><use xlink:href="#path0_fill" fill="#7EB142"/><use xlink:href="#path1_fill" transform="translate(2.514 2.51)" fill="#FFF"/><g transform="translate(-813 -1416)"><use xlink:href="#path2_fill" transform="translate(817.605 1420.6)" fill="#7EB142"/></g><defs><path id="path0_fill" fill-rule="evenodd" d="M16.5 42.429S33 25.529 33 16.446C33 7.363 25.613 0 16.5 0S0 7.363 0 16.446c0 9.083 16.5 25.983 16.5 25.983z"/><path id="path1_fill" fill-rule="evenodd" d="M13.986 27.971c7.724 0 13.985-6.261 13.985-13.985C27.971 6.262 21.71 0 13.986 0 6.262 0 0 6.262 0 13.986 0 21.71 6.262 27.97 13.986 27.97z"/><path id="path2_fill" fill-rule="evenodd" d="M13.403.095A12.019 12.019 0 0 0 11.895 0C5.325 0 0 5.326 0 11.895c0 5.258 3.411 9.72 8.142 11.291l3.075-8.765-7.62.676L13.404.095zM9.22 23.489L20.615 8.807l-9.028 1.088L14.52.29c5.306 1.195 9.27 5.937 9.27 11.604 0 6.57-5.326 11.896-11.896 11.896-.92 0-1.815-.105-2.675-.302z"/></defs></svg>