<svg width="42" height="42" viewBox="0 0 42 42" version="1.1" xmlns="http://www.w3.org/2000/svg" xmlns:xlink="http://www.w3.org/1999/xlink">
<title>noun_175471_cc</title>
<desc>Created using Figma</desc>
<g id="Canvas" transform="translate(-922 -2404)">
<g id="noun_175471_cc">
<g id="Group">
<g id="Shape">
<use xlink:href="#path0_fill" transform="translate(935.037 2411.96)" fill="#96BD22"/>
</g>
<g id="Shape">
<use xlink:href="#path1_fill" transform="translate(922.438 2404.44)" fill="#96BD22"/>
</g>
</g>
</g>
</g>
<defs>
<path id="path0_fill" fill-rule="evenodd" d="M 0.700012 0L 27.825 0C 28.2625 0 28.525 0.262451 28.525 0.699951L 28.525 21.7C 28.525 22.1375 28.175 22.3999 27.825 22.3999L 0.700012 22.3999C 0.262512 22.3999 0 22.05 0 21.7L 0 0.699951C 0 0.262451 0.349976 0 0.700012 0ZM 19.3375 18.2002C 19.775 18.9001 20.5625 19.425 21.525 19.425C 22.925 19.425 24.0625 18.2876 24.0625 16.8877C 24.0625 15.4875 22.925 14.3501 21.525 14.3501C 20.5625 14.3501 19.775 14.7876 19.3375 15.5752C 18.9 14.875 18.1125 14.3501 17.15 14.3501C 15.75 14.3501 14.6125 15.4875 14.6125 16.8877C 14.6125 18.2876 15.75 19.425 17.15 19.425C 18.1125 19.425 18.9 18.9875 19.3375 18.2002ZM 24.0625 10.5L 16.5375 10.5C 16.0125 10.5 15.6625 10.0625 15.6625 9.625C 15.6625 9.1875 16.1 8.75 16.5375 8.75L 24.0625 8.75C 24.5875 8.75 24.9375 9.1875 24.9375 9.625C 24.9375 10.0625 24.5875 10.5 24.0625 10.5ZM 16.5375 4.8999L 24.0625 4.8999C 24.5875 4.8999 24.9375 4.4624 24.9375 4.0249C 24.9375 3.5874 24.5875 3.1499 24.0625 3.1499L 16.5375 3.1499C 16.1 3.1499 15.6625 3.5 15.6625 4.0249C 15.6625 4.4624 16.0125 4.8999 16.5375 4.8999Z"/>
<path id="path1_fill" fill-rule="evenodd" d="M 3.76251 33.1626L 19.775 33.1626L 19.8625 33.1626L 19.8625 31.675L 23.625 31.675L 23.625 40.425C 23.625 40.8625 23.275 41.125 22.925 41.125L 0.700012 41.125C 0.262512 41.125 0 40.7749 0 40.425L 0 0.699951C 0 0.262451 0.349976 0 0.700012 0L 22.8375 0C 23.275 0 23.5375 0.350098 23.5375 0.699951L 23.5375 5.6875L 19.775 5.6875L 19.775 4.19995L 3.76251 4.19995L 3.76251 33.1626ZM 10.675 38.1499L 12.8625 38.1499C 13.3875 38.1499 13.825 37.7998 13.7375 37.2749C 13.7375 36.8374 13.3875 36.3999 12.8625 36.3999L 10.675 36.3999C 10.2375 36.3999 9.79999 36.75 9.79999 37.2749C 9.79999 37.7124 10.15 38.1499 10.675 38.1499Z"/>
</defs>
</svg>
