<svg width="20" height="20" viewBox="0 0 20 20" version="1.1" xmlns="http://www.w3.org/2000/svg" xmlns:xlink="http://www.w3.org/1999/xlink">
<title>noun_329775_cc</title>
<desc>Created using Figma</desc>
<g id="Canvas" transform="translate(-520 -2867)">
<g id="noun_329775_cc" opacity="0.516531">
<g id="Shape">
<use xlink:href="#path0_fill" transform="translate(520 2867)" fill="#818692"/>
</g>
</g>
</g>
<defs>
<path id="path0_fill" fill-rule="evenodd" d="M 10.1326 16.7629C 10.0142 16.4058 9.89105 16.0339 9.79596 15.6929C 9.85449 15.7451 13.5247 14.4575 13.5247 14.4575C 13.6513 14.8315 13.7432 15.1743 13.826 15.4827C 13.9691 16.0161 14.0846 16.4468 14.3042 16.7581C 15.2607 18.1143 17.4969 17.7012 17.5327 15.9163C 17.5461 15.2324 17.4037 14.8757 17.1909 14.342C 17.0789 14.0613 16.9473 13.7314 16.8087 13.2793C 17.0495 13.1914 17.3173 13.1138 17.5925 13.0342C 18.8121 12.6812 20.1761 12.2864 19.9813 10.7546C 19.8888 10.031 19.2596 9.30176 18.2557 9.29614C 17.5996 9.29248 17.1451 9.48926 16.6049 9.72314C 16.3351 9.84009 16.0439 9.96631 15.6956 10.0813L 14.4709 6.26587C 14.7018 6.18652 14.9377 6.11597 15.1716 6.04614C 16.2129 5.73511 17.2125 5.43677 17.5324 4.41479C 17.7449 3.75977 17.3693 2.7207 16.5891 2.45361C 15.8197 2.19067 14.8384 2.56543 13.9571 2.90234C 13.7505 2.9812 13.5494 3.05811 13.3578 3.12402C 13.27 2.86841 13.2053 2.60059 13.14 2.32983C 13.0057 1.77393 12.8687 1.2063 12.5233 0.711182C 11.9648 -0.0883789 10.6158 -0.283203 9.85132 0.487061C 9.02277 1.32275 9.40533 2.37256 9.80701 3.47437C 9.90009 3.72974 9.99414 3.98779 10.0744 4.24658L 6.34509 5.48071C 6.2879 5.3064 6.23047 5.12183 6.17188 4.93359C 5.88336 4.00708 5.56744 2.99243 5.12109 2.67554C 3.98438 1.86743 2.42072 2.63721 2.33777 3.96606C 2.29352 4.68213 2.51569 5.21704 2.755 5.79297C 2.86115 6.04834 2.97064 6.31201 3.06177 6.60303C 2.80121 6.71094 2.51062 6.80103 2.21509 6.89258C 1.15009 7.22217 0.0206299 7.57202 0.000244141 8.84717C -0.012085 9.64551 0.490234 10.2422 1.22485 10.53C 1.67389 10.6311 2.54199 10.3325 3.33978 10.0583C 3.6145 9.96387 3.88086 9.87231 4.1189 9.80078C 4.58466 11.0332 5.39929 13.6165 5.39929 13.6165C 5.04919 13.7808 4.6745 13.8765 4.3111 13.9695C 3.77631 14.1062 3.26599 14.2366 2.89465 14.5698C 1.90247 15.4602 2.26758 17.4177 3.67358 17.5996C 4.2868 17.679 4.78601 17.4875 5.40765 17.2493C 5.73138 17.1252 6.08838 16.9883 6.51202 16.8704C 6.6264 17.2312 6.70569 17.541 6.77667 17.8184C 6.92352 18.3918 7.03461 18.8257 7.34668 19.283C 8.31586 20.7014 10.7848 19.8618 10.5193 18.1042C 10.4713 17.7859 10.3072 17.2903 10.1326 16.7629ZM 11.0758 7.38818L 12.4117 11.2036L 8.68268 12.4377L 7.45844 8.67822L 11.0758 7.38818Z"/>
</defs>
</svg>
