<svg width="50" height="46" viewBox="0 0 50 46" version="1.1" xmlns="http://www.w3.org/2000/svg" xmlns:xlink="http://www.w3.org/1999/xlink">
<title>noun_1017145_cc</title>
<desc>Created using Figma</desc>
<g id="Canvas" transform="translate(-513 -2403)">
<g id="noun_1017145_cc">
<g id="Shape">
<use xlink:href="#path0_fill" transform="translate(513 2403.17)" fill="#96BD22"/>
</g>
</g>
</g>
<defs>
<path id="path0_fill" fill-rule="evenodd" d="M 6.52039 36.9846C 8.43073 37.9199 10.3137 38.5894 11.9679 38.7134C 9.88013 37.4946 7.84259 35.7043 6.34052 33.8262L 13.5244 33.8262C 14.0265 35.3652 14.6884 37.0269 15.3615 38.5667C 16.2304 38.5715 17.0432 38.5251 17.796 38.2578C 17.188 36.8623 16.521 35.2708 16.0435 33.8755L 26.7417 33.8755C 28.8987 32.0786 30.2246 29.8616 31.7164 27.198C 31.8578 25.7708 31.9097 24.4368 31.9377 22.8945C 31.7815 22.7761 31.6448 22.6702 31.5103 22.5659C 31.1212 22.2642 30.7506 21.9768 29.9792 21.4431L 31.7182 20.7771C 32.0167 18.6855 31.214 14.0747 30.6911 11.9622L 38.5984 11.9622C 39.5869 13.696 40.2682 15.1555 40.6887 17.1692L 42.6734 16.4136C 41.8155 12.5215 39.9332 9.31592 36.9268 6.30981C 28.5137 -2.10327 14.7036 -2.10327 6.29077 6.30981C -2.32751 14.9277 -1.93726 28.7598 6.52039 36.9846ZM 27.2889 2.92285C 31.113 4.08325 34.4414 6.38354 36.8771 9.42896L 29.9731 9.42896C 29.2807 7.26025 28.3889 5.0918 27.2889 2.92285ZM 21.6085 2.08423C 20.5673 2.08423 19.5453 2.16602 18.5481 2.32275C 17.2209 4.69165 16.1804 7.06006 15.4072 9.42896L 27.8103 9.42896C 27.0365 7.06006 25.9966 4.69189 24.6691 2.32275C 23.6719 2.16553 22.6499 2.08423 21.6085 2.08423ZM 6.34021 9.42896C 8.77618 6.38379 12.1042 4.08325 15.9283 2.92285C 14.8283 5.0918 13.9362 7.26025 13.2442 9.42896L 6.34021 9.42896ZM 29.563 20.3606C 29.5597 17.5613 29.2292 14.762 28.5368 11.9622L 14.6801 11.9622C 13.9877 14.762 13.6572 17.5613 13.6542 20.3606L 29.563 20.3606ZM 2.10693 20.3611C 2.30176 17.3201 3.1908 14.4678 4.61914 11.9626L 12.5264 11.9626C 11.8334 14.7625 11.4697 17.5618 11.4185 20.3611L 2.10693 20.3611ZM 27.9896 31.2927C 28.7798 28.4937 29.2871 25.6941 29.478 22.8943L 13.739 22.8943C 13.9301 25.6941 14.4371 28.4939 15.2274 31.2927L 27.9896 31.2927ZM 4.61914 31.2927C 3.19049 28.7876 2.30145 25.9355 2.10693 22.8943L 11.4575 22.8943C 11.5944 25.6941 12.0386 28.4934 12.7767 31.2927L 4.61914 31.2927ZM 49.9023 33.3755L 49.3884 15.3052L 33.5518 21.9299C 34.2616 22.4211 34.6031 22.6858 34.9611 22.9634C 35.2903 23.2188 35.6334 23.4846 36.2899 23.9475C 29.4975 40.9636 12.4825 45.0442 3.36334 36.4036C 12.135 49.1506 35.8036 47.8638 45.3655 30.1792C 46.2439 30.7788 46.8475 31.2112 47.5276 31.6982C 48.1594 32.1506 48.8571 32.6504 49.9023 33.3755Z"/>
</defs>
</svg>
